<svg version="1.2" xmlns="http://www.w3.org/2000/svg" viewBox="0 0 660 659" width="660" height="659">
	<title>download (1)</title>
	<style>
		.s0 { fill: #000000 } 
		.s1 { fill: #010101 } 
	</style>
	<path class="s0" d="m404.7 155.3c28.2 7.5 47.9 24.2 57.2 51.6 8.4 24.7 6.7 49-8.9 70.6-5.8 8-13.9 14.6-21.8 20.8-23.4 18-47.1 35.4-70.8 53-5.9 4.4-12.1 8.6-19.5 13.8 0-9.1-0.1-17.3 0.1-25.5 0-0.9 1.3-2.1 2.3-2.8 24.5-18.5 49.1-36.9 73.5-55.6 6.3-4.8 12.9-9.7 17.6-15.9 13-16.9 14.2-43.3 2.7-61.4-11-17.3-26.6-27.8-47.8-26.6-7.5 0.5-15.4 3-22.1 6.5-8.8 4.6-16.7 11.1-25.3 17 0-2.9 0-6 0-9.1 0-3.7 0.9-7.6-0.2-11-2.4-7.2 1.9-9.7 6.9-13.1 12-8 24.9-12.7 39.1-13.5 5.5-0.3 11 0.7 17 1.2z"/>
	<path class="s0" d="m326 174.7c0.2 8.6 0.2 16.8 0.2 26.6-5.6-3.9-10.3-7.2-15.1-10.5-11.8-8.1-23.9-14.3-38.9-14.4-17.9 0-41.5 16-48.3 36.5-7.5 22.8-0.4 53.2 23.4 69.2 26.2 17.5 51.2 36.8 76.6 55.6 1.5 1 2.3 3.7 2.4 5.6 0.3 6.8 0.1 13.6 0.1 21.4-6.9-4.7-13.5-8.9-19.9-13.5-19.8-14.4-39.5-28.9-59.3-43.4-6.3-4.6-12.7-9-18.9-13.7-16.3-12.2-24.3-29.3-27.3-48.9-3.8-24.1 1.4-46 16.9-65.1 11.4-14 25.9-22.5 44-25.3 16.5-2.5 32.1 0.1 46.7 8 6.1 3.2 11.5 7.6 17.4 11.9z"/>
	<path class="s0" d="m442.2 636.9c0 5.8 0 11.1 0 16.8-6.6 0-13.4 0-20.7 0q0-25.5 0-51.3-0.6-0.3-1.3-0.7c-9 10.2-18 20.4-27 30.5-8-10.4-15.9-20.7-23.9-31q-0.6 0.1-1.2 0.3c-0.6 17.4-1.2 34.9-1.7 52.9-7.3 0-14 0-21.2 0 0-33.4 0-67.2 0-101.1 6.7-1.4 11.8 0.6 16.2 6.4 10.3 13.8 21.1 27.2 31.9 40.9 6.8-8.2 14.1-16.9 21.4-25.6 5.6-6.7 11.2-13.6 17.3-19.9 2.3-2.4 6-3.4 10.1-5.6 0 30 0 58.5 0.1 87.4z"/>
	<path class="s0" d="m309.5 639.5c-24.8 21.5-49.7 18.3-72-0.4-20.2-16.9-21.6-50.1-3.2-68.8 13.6-13.7 29.3-20.3 48.3-16.8 19.1 3.6 33.4 14.5 39.9 33 7 19.8 1.8 37.7-13 53zm-59.4-17.2c10.8 12.4 23.8 14.2 39.1 5.3 12-6.9 17.5-18.9 14.1-30.4-4.9-17-17.2-24.2-30.3-23.7-11.8 0.5-21.4 6.3-27 17.5-5.6 11.1-2.6 21.1 4.1 31.3z"/>
	<path class="s0" d="m190 653.8c-3.1 0-5.7 0-9 0 0-13.6 0-27 0-41-13.7 0-26.8-0.1-39.9 0.2-0.8 0-2.2 2.7-2.3 4.2-0.5 11.5-0.7 23-1.1 34.5 0 0.6-0.1 1.2-0.2 2.2-6.6 0-13 0-20 0 0-33.4 0-66.9 0-100.7 7.2 0 13.8 0 21 0 0 13.1 0 26.1 0 39.7 13.4 0 26.1 0.1 38.9-0.2 0.8 0 2.4-2.7 2.4-4.1 0.4-10.8 0.5-21.6 0.7-32.4 0-1 0.3-2 0.4-3.3 6.8 0 13.4 0 20.4 0 0 33.6 0 67.1 0 100.9-3.6 0-7.2 0-11.3 0z"/>
	<path class="s0" d="m614.6 631.8c7.2-7.3 6.3-12.5-2.9-15.9-7.5-2.8-15.4-4.7-23-7.5-9.8-3.6-17.6-9.4-19.7-20.6-2.9-15.5 5.7-29.2 21.5-34.1 11.5-3.6 22.7-2.5 33.5 2.6 4.9 2.3 9.5 5.1 14.3 7.8q-6.7 8.1-12.4 14.9c-5.4-2.3-10.6-4.8-16.1-6.5-3.1-0.9-6.6-0.9-9.9-0.5-4.3 0.6-7.9 2.9-9 7.5-1 4.7 2.2 7.7 5.8 9.5 4.8 2.2 9.9 3.6 14.9 5.4 5.7 2.2 11.8 3.8 17.1 6.6 16.3 8.5 14.6 28.8 7.4 38.1-7.7 10-18.1 13.7-30.6 14.3-15.7 0.6-28.4-6.7-41.1-13.6 4.9-5.4 9.7-10.6 14.5-15.9 10.3 7.1 21.4 13.4 35.7 7.9z"/>
	<path class="s0" d="m538.4 610.5c6.3 14.5 12.5 28.6 19.1 43.7-6.9 0-12.5 0.3-18.1-0.1-1.5-0.1-3.6-1.6-4.4-3.1-2.7-5.1-4.8-10.5-7.5-15.6-0.9-1.5-3-3.2-4.6-3.2-11 0-21.9 0.4-32.8 0.9-1.5 0.1-3.5 1.6-4.2 3-2.3 4.4-4.4 9-6 13.7-1.4 3.8-3.4 5-7.4 4.8-5.2-0.4-10.5-0.1-17.4-0.1 16.4-36.1 32-71.2 51.5-104.4q1-0.1 1.9-0.2c9.9 20.1 19.9 40.2 29.9 60.6zm-39.6-1c-0.3 1.4-0.6 2.7-1 4.2 6.6 0 12.6 0 19.3 0-3.6-7.6-7-14.7-10.7-22.5-2.7 6.3-5 11.9-7.6 18.3z"/>
	<path class="s0" d="m159.3 149.4c13.7-8.7 27.1-17 40.3-25.5 11.3-7.3 22.4-14.9 33.6-22.4 0.8-0.5 1.5-1.3 2.6-2.2 4.1 6.1 8.2 12.2 13 19.2-6.8 4.4-13.3 8.3-19.6 12.5-15.8 10.4-31.5 20.8-47.3 31.3-1 0.6-1.9 1.5-3 1.7-7.7 1.4-8.4 6.5-8.3 13.3 0.5 21.7 0.1 43.3 0.3 64.9 0 3.5-1.2 4.8-4.6 4.7-5-0.2-10 0-16.1 0-0.9-30.4-0.2-60.9-0.3-91.1 3.2-2.2 6.2-4.2 9.4-6.4z"/>
	<path class="s0" d="m202 360c16.1 10.2 32 20.2 47.8 30.1-4.1 5.8-8.7 12.3-13 18.3-28.7-18.6-57.4-37.3-86.9-56.5 0-29.5 0-60 0-90.9 6.9 0 13.8 0 20.1 0 0 25.7 0 51.2 0.1 76.8 0.1 1.4 1.2 3.3 2.4 4 9.6 6.2 19.4 12 29.5 18.2z"/>
	<path class="s0" d="m496.1 167.7c-2.8-0.7-6-0.8-8.3-2.3-15.4-10-30.7-20.4-46-30.6-6.9-4.6-13.8-9.1-21.1-14 4.4-6 8.6-11.9 12.9-17.9 26.9 16.9 54.2 34.2 81.9 51.6-1.9 1.7-3.5 3.3-5.2 4.9q0.2 0.4 0.4 0.9c2.3-0.9 4.6-1.8 8-3.2 0 29.6 0 59-0.5 88.7-0.8 0.5-1.1 0.7-1.2 1-6.5 0-13.1 0-20 0 0-25.6 0-50.7 0.4-76.5 3.6-2.7 6.7-4.9 10.5-7.5-4.8-0.6-8.5 1.2-11.8 4.9zm11.4-7.3c0 0 0.1 0.1 0 0z"/>
	<path class="s0" d="m71.1 587.9c0 22.2 0 44 0 66.3-7.3 0-13.8 0-21 0 0-12.8 0.1-25.1 0-37.4 0-13.5-0.1-26.9-0.1-40.4 0-3.4-2.2-3.3-4.3-3.3-7.5-0.1-14.9 0-22.4 0 0-6.5 0-12.5 0-18.9 1.3-0.2 2.4-0.5 3.5-0.5 22.4-0.2 44.7-0.2 67-0.6 4 0 5.3 1.1 5 5.1-0.3 4.6 0 9.3 0 14.5-9.3 0-18.4 0-27.7 0 0 5.2 0 9.9 0 15.2z"/>
	<path class="s0" d="m517.8 301c0 16.8 0 33.6 0 50.5-29.5 16.7-58.1 36.4-86.1 56.3-4.1-5.8-8.2-11.6-12.7-18 3.9-2.7 7.9-5.7 12.2-8.5q31.1-20.3 62.2-40.5c3.1-2 5.1-4.2 4.7-8.4-0.5-5.8-0.2-11.7 0.2-18 1.7-1.3 3.1-2.9 4.3-2.8 6.3 0.5 9.1-1.2 11.6-7.1 0.6-1.5 2.4-2.4 3.6-3.5z"/>
	<path class="s0" d="m509.1 74.2c12.4-0.3 24.2-0.3 36.1-0.5 6-0.1 12-0.7 18.4-1.1q0 26.5 0 53.9c-17.8 0.9-35.2 1.7-52 2.6-1-18.3-1.9-36.5-2.5-54.9zm38 31.9c0-5.6 0-11.2 0-17-6.4 0-12.3-0.1-18.2 0.2-1.2 0-3.4 1.5-3.4 2.4-0.3 6.7-0.2 13.5-0.2 20.5 8.1-0.5 15.2-1 22.2-1.4-0.2-1.5-0.3-2.6-0.4-4.7z"/>
	<path class="s0" d="m160.9 76.8c-4.2 14.4-3.1 28.8-3 43.1 0 2.6 0 5.2 0 7.9-15.4 0-30.5-0.1-45.6 0-4.5 0.1-6.4-1.3-6.4-6.3-0.1-15.1-0.7-30.2-1-45.3-0.1-0.7 0-1.5 0.1-3.2 18.8 0 37.3 0 56.2 0-0.1 0.9-0.1 2.2-0.3 3.8zm-18.1 18.9c0-2 0-3.9 0-6.3-7.5 0-14.5 0-21.6 0 0 7.7 0 15.4 0 22.3 6.2 0 12.4 0.2 18.6-0.1 1.1 0 2.9-1.9 3-3 0.3-4 0.1-8 0-12.9z"/>
	<path class="s0" d="m536.7 439.6c-9.6-1.4-18.9-3-27.6-4.5 0-17.6 0-34.7 0-51.8 18.4 0 36.3 0 54.4 0 0.2 0.7 0.5 1.7 0.5 2.6-0.4 14.9-0.9 29.8-1 44.7 0 3.4-1.2 4.5-3.9 5-7.4 1.3-14.7 2.6-22.4 4zm1.8-17.3c2.7 0 5.5 0 8.6 0q0-11.4 0-23.1-10.8 0-21.9 0c0 8 0 15.8 0 23.8 4.2-0.3 8.3-0.5 13.3-0.7z"/>
	<path class="s0" d="m384.1 69.9c12.1 8 24 15.7 35.7 23.3-3.7 6.4-7.4 12.9-11.3 19.8-12.9-8.9-25.5-17.8-38.3-26.5-8.4-5.6-17-11-25.6-16.3-2.6-1.6-3.8-3.3-3.7-6.4 0.2-7.2 0.1-14.4 0.1-22.7 15.2 10.2 29 19.4 43.1 28.8z"/>
	<path class="s0" d="m295.3 88.3c-11.3 7.5-22.3 14.9-33.3 22.2q-6.2-9.2-12.6-18.9c25.4-16.4 51-33.1 76.9-49.9 0 8.5 0.1 16.6 0 24.6 0 0.8-0.6 1.9-1.3 2.4-9.7 6.5-19.5 13-29.7 19.6z"/>
	<path class="s0" d="m256.4 406.4q3.8-4.1 6.6-7.2c20.4 13.2 40.1 26.1 59.9 38.9 2.5 1.6 3.5 3.3 3.4 6.3-0.3 6.8-0.1 13.6-0.1 20.7-25.9-16.2-52.1-32.6-78.7-49.3 2.8-2.9 5.7-6 8.9-9.4z"/>
	<path class="s1" d="m114.6 435.2c-3 0-6 0-9.7 0 0-17.3 0-34.1 0-52.2 17.8 0 36.1 0 54.4 0-0.6 10.7-1.2 22.4-2.2 34.6-2.9 5.6-8.3 5.4-12.5 6.9-1.2 0.4-3.1-1.5-4.2-2.4 1.1-0.9 2.4-1.7 2.4-2.5 0.1-7 0.1-14.1 0.1-21.2q-11.8 0-22.1 0c0 3.8 0 7.2-0.1 10.7-0.2 0.2-0.3 0.3-0.3 0.4 0.1 0.2 0.3 0.3 0.5 0.9 0 1.8-0.1 3.2-0.3 4.8-0.1 1.1 0.1 1.9 0.3 3.1 0 0.8 0 1.2-0.4 1.8-1 4.4-1.8 8.9-2.3 13.3-0.1 0.8 0.7 1.7 1.1 2.6-0.6 0-1.2 0-2.7-0.3-1.3-0.5-1.7-0.5-2-0.5z"/>
	<path class="s0" d="m483.7 98.4c8.9 3.4 11 9.8 9.3 18.1-0.2 1.3-0.2 2.6-0.3 4.4-7.6-5.3-14.8-10.6-22.2-15.4-9.3-6-18.9-11.5-28.2-17.5-5.2-3.4-10.1-7.4-14.8-11.5-1.2-0.9-1.6-3.2-1.7-4.9-0.3-12.9-0.5-25.8-0.8-38.7 0-2-0.1-3.9-0.2-5.7 4.4-0.9 8.5-1.8 13.2-2.8 0.2 1.2 0.5 2.4 0.6 3.6 0.5 11.1 1.9 22.3 1.3 33.3-0.3 7.8 4.5 12 9.5 13.8 4.9 1.8 8 5.3 11.9 7.9 7.5 4.8 14.7 10.1 22.4 15.4z"/>
	<path class="s0" d="m279.9 228.1c1.8 0 3.1 0 4.8 0 0 18.6 0 37.1 0 56.5-6.6 0-13.3 0-20.6 0 0-0.6-0.1-2 0-3.4 0.4-10.3 0.7-20.6 1.2-30.8 0.2-3-1.2-4-3.7-4-5.5-0.1-11.1 0.1-16.6 0.1-3.1 0-6.3 0-9.9 0 0.6-5.9 1.1-11.4 1.6-17.6 14.2-0.3 28.5-0.5 43.2-0.8z"/>
	<path class="s0" d="m546.6 359c-3.7 0-7 0-10.8 0 0-32.7 0-65.2 0-97.7 5.3-0.4 10-0.8 15.3-1.3 0 7.5 0 15 0 22.4q-0.2 33.5-0.4 67c0 2.3 0.1 4.7-0.5 6.9-0.3 1.1-2 1.8-3.6 2.7z"/>
	<path class="s0" d="m132.6 328c0 10 0 19.5 0 29.5-4.4 0-9.1 0-14.5 0q0-48.1 0-96.9c4.5-0.3 9.1-0.6 14.5-0.9 0 22.7 0 45.3 0 68.3z"/>
	<path class="s0" d="m535.4 201c0-15.9 0-31.4 0-47.2 5.6 0 10.4 0 15.5 0q0 45.5 0 91.5c-5 0-9.7 0-15.5 0 0-14.6 0-29.2 0-44.3z"/>
	<path class="s0" d="m132.8 205c0 13.3 0 26.1 0 39-5.2 0-9.7 0-14.5 0 0-30.1 0-60.3 0-90.9 5.1 0 9.6 0 14.5 0 0 16.9 0 34.1 0 51.9z"/>
	<path class="s0" d="m489 390.7c1 0.3 2.1 0.7 2.2 1.2 0.5 4.2 1.1 8.3 1.1 12.4 0 1.2-1.7 2.6-2.9 3.4-8 5.9-16.2 11.6-23.6 16.9 4.6 15 2.3 29.6 3 44.1-5.1 0-9.7 0-14.9 0 0-3.6 0.2-6.9 0-10.1-0.9-10.9-1.7-21.8-3.1-32.7-0.7-5.9 0.4-9.9 5.8-13.3 10.9-6.8 21.4-14.4 32.4-21.9z"/>
	<path class="s0" d="m178.3 394.4c1.9-0.3 4-0.8 5.4 0 12.1 7.3 24 14.8 35 21.6-1.1 17.3-2.2 34.4-3.3 51.7-4.7 0-9.4 0-14 0 0-14 0-27.5-0.1-41.1 0-1.5-0.6-3.5-1.6-4.3-5.9-4.2-11.8-8.3-18-12-3.8-2.2-5.6-4.7-4.4-9.1 0.6-2.1 0.7-4.3 1-6.8z"/>
	<path class="s0" d="m378 480.9c-10.8 7-21.3 13.8-31.9 20.7-2.3-4.9-4.1-8.8-5.9-12.7 23-15.3 45.9-30.5 68.7-45.7 0.2 0.2 0.5 0.4 0.6 0.7 4 10.3 0.5 17.5-8.9 22.9-7.6 4.3-14.9 9.3-22.6 14.1z"/>
	<path class="s0" d="m407.5 64.7c-21.3-13.9-42.3-27.4-63.2-41.2-1.2-0.8-2.3-2.8-2.3-4.2 0.2-3.6 1.1-7.1 1.9-11.6 7.4 4.4 14.3 8.5 21.1 12.7 12.6 7.8 24.9 16.1 37.8 23.3 9.5 5.4 10.9 12.6 7.2 22.1q-0.8-0.3-2.5-1.1z"/>
	<path class="s0" d="m266.8 60.8c-2.1 1.3-3.9 2.4-6.8 4.1 0-5.5-0.4-10 0.2-14.3 0.3-2 2.2-4.3 4.1-5.6 8.4-6 17-11.8 25.7-17.6 10.1-6.7 20.4-13.3 30.7-20 0.7-0.5 1.8-0.6 2.9-0.9 0.5 4.5 1.2 8.7 1.4 12.9 0 1.3-1.1 3-2.3 3.8-18.5 12.5-37.1 25-55.9 37.6z"/>
	<path class="s0" d="m321.7 498.7c-18.4-11.4-36.5-22.6-54.6-33.8-8.4-5.1-8.8-6.5-5.9-20.7q33.2 20.8 66.3 41.6c-1 4.8-1.9 9.6-2.9 14.8-1-0.7-1.8-1.2-2.9-1.9z"/>
	<path class="s1" d="m341.6 446c-0.8-2.5-1.1-4.4 1.7-6.3 13.2-8.8 26.1-17.9 39.2-26.8 7.5-5.1 15.1-9.9 23.1-15.1 4.2 5.5 8.9 11.6 13.7 17.8-4.9 2.8-9.7 5.6-15 8.2-1.6-1-3-2.6-3.7-2.3-5.8 2-11.5 4.5-17.2 6.8-1.9 0.7-3.8 1-5.7 1.7-5 1.9-10.8 3-14.8 6.2-3.4 2.8-6.1 5.3-10.7 5-0.6-0.1-1.3 0.8-2.1 1.2-2.8 1.2-5.7 2.4-8.5 3.6z"/>
	<path class="s0" d="m517.9 300.5c-1.3 1.6-3.1 2.5-3.7 4-2.5 5.9-5.3 7.6-11.6 7.1-1.2-0.1-2.6 1.5-4.2 2.3-0.5-2.6-0.7-5.3-0.4-8.5 2.1-1.9 2.4-3-0.2-3.5 0-13.1 0-26.2 0-39.7 6.7 0 13.6 0 20.2 0 0 12.7 0 25.3-0.1 38.3z"/>
	<path class="s0" d="m81.4 273.2c-14.2 0.1-27.8 0.1-41.6 0.1 0-3.7 0-8.3 0-13.4 20.9 0 41.4 0 62.2 0 0 4.1 0 8.4 0 13.3-6.6 0-13.3 0-20.6 0z"/>
	<path class="s0" d="m608 273.8c-14.1 0-27.7 0-41.6 0 0-4.1 0-8.4 0-13.2 21.3 0 42.8 0 64.6 0q0 6.1 0 13.2c-7.7 0-15.1 0-23 0z"/>
	<path class="s0" d="m98.9 231.2c1.7-0.1 2.8-0.1 4.2-0.2-0.1 1.9-0.2 3.5-0.3 5.1-0.3 8.7-0.3 8.7-9.3 8.7-17.4 0-34.8 0-53.3 0 0-3.8-0.2-7.7 0.2-11.5 0.1-0.9 2.7-2.1 4.2-2.1 12.4-0.1 24.9 0.1 37.4 0.1 5.5 0.1 11 0 16.9-0.1z"/>
	<path class="s0" d="m88 215.6c-16.1 0-31.8 0-48 0-0.4-3.9-0.8-7.8-1.2-12.6 21.3 0 42.4 0 63.7 0q-0.3 5.4-0.6 12.6c-4.5 0-9 0-13.9 0z"/>
	<path class="s0" d="m424 456.9c-0.3-7.3-0.7-14.1-0.8-20.9 0-1.3 1-3.2 2.2-3.9 3.6-2.5 7.6-4.5 11.3-6.7 3.2 19.9 3 39.9 0.5 60-4.8 0-9.2 0-14.5 0 0.4-9.6 0.8-18.8 1.3-28.5z"/>
	<path class="s0" d="m614 245c-15.8 0-31.1 0-46.7 0 0-4.3 0-8.6 0-13.1 21.5 0 42.7 0 63.9 0 0 4.3 0 8.2 0 13.1-5.8 0-11.3 0-17.2 0z"/>
	<path class="s0" d="m242.2 75c-3.4 2.6-6.6 5-10.2 7.6-4.3-19.2 0.4-38.1-1-57.4 4.9-0.3 9.4-0.7 13.9-0.6 0.6 0 1.8 2.5 1.7 3.8-0.2 9.8-0.7 19.5-1.1 29.3-0.2 3.9-0.1 7.7-0.6 11.5-0.2 1.9-1.5 3.7-2.7 5.8z"/>
	<path class="s0" d="m341.5 446.4c2.9-1.6 5.8-2.8 8.6-4 0.8-0.4 1.5-1.3 2.1-1.2 4.6 0.3 7.3-2.2 10.7-5 4-3.2 9.8-4.3 14.8-6.2 1.9-0.7 3.8-1 5.7-1.7 5.7-2.3 11.4-4.8 17.2-6.8 0.7-0.3 2.1 1.3 3.4 2.4-20.6 14.3-41.4 28.3-62.7 42.7 0-6.7 0-13.2 0.2-20.2z"/>
	<path class="s0" d="m83 301c-14.4 0-28.4 0-42.4 0 0-4.4 0-8.5 0-12.9 20.4 0 40.3 0 60.6 0 0 3.7 0 7.5 0 12.3q-8.4 0.3-18.2 0.6z"/>
	<path class="s0" d="m386.9 241.7c-0.1-4.6-0.1-8.7-0.1-13.2 14.1 0 27.8 0 41.7 0 0 6 0 11.5 0 18.1-6.7 0-13.8 0.1-20.8 0-5.7 0-11.3-0.2-17-0.2-3.1 0-4.2-1.3-3.8-4.7z"/>
	<path class="s0" d="m630.3 289.4c0.4 3.9 0.4 7.6 0.4 11.5-21.7 0-42.8 0-64.1 0 0.3-4.1 0.6-7.8 0.9-11.8 21.1 0 41.8 0 62.8 0.3z"/>
	<path class="s0" d="m178 118c-0.8-5.1-1.5-10.1-2.3-15.4 12.8-8.5 26-17.1 40-26.3 0.6 4.3 1.2 7.6 1.5 11 0.4 3.3-0.9 5.8-4 7.8-11.7 7.7-23.2 15.6-35 23.1-0.3-0.2-0.2-0.2-0.2-0.2z"/>
	<path class="s0" d="m245.8 445c0.1 11.3 0.3 22.6 0.3 33.8 0 2.3-0.4 4.6-0.6 7.1-5.1 0-9.9 0-13.9 0 0-13.9 0-27.5 0.6-41.6 2.6 0 4.6 0.4 7.6 0.9 0.7-2.7 1.4-5.7 2.1-8.7q0.7 0 1.5 0.1c0.2 1.5 0.2 3 0.7 4.5 0.4 1.3 1.1 2.6 1.7 3.9z"/>
	<path class="s0" d="m140 422.2c1.5 0.8 3.4 2.7 4.6 2.3 4.2-1.5 9.6-1.3 12.3-6.5 0.6 4.8 0.9 9.7 1.3 15-3.5 0.7-6.8 1.4-10.9 2-6.5 0.4-12.1 1-17.8 1.7-0.2 0-0.3 0.8-0.5 1.3-3.1-0.5-6.3-1.1-9.5-1.8-0.6-1.1-1.4-2-1.3-2.8 0.5-4.4 1.3-8.9 2.4-12.9 1.2 0.8 2 1.6 2.8 1.6 5.6 0.1 11.1 0 16.6 0.1z"/>
	<path class="s0" d="m580.8 158.2c0 10.8 0 21.1 0 31-0.9 0.5-1.2 0.8-1.5 0.8-13 0.8-12.9 0.7-12.6-12.1 0.1-7.3 0-14.6 0-22.1 4.8-0.3 8.6-0.7 12.3-0.7 0.6 0 1.2 1.7 1.8 3.1z"/>
	<path class="s0" d="m88.3 341.7c-0.4-8.8-0.8-17.2-1.1-24.9 1-0.9 1.2-1.1 1.3-1.1 16.5-0.8 13-2.5 13.1 11.7 0 4.7-0.3 9.3-0.3 14 0 3.8-1.1 6.1-5.5 5.4-2.1-0.4-4.3-0.1-6.9-0.1-0.2-1.7-0.4-3.1-0.6-5z"/>
	<path class="s0" d="m597 203.4c11-0.1 21.6-0.1 32.7-0.1 0 3.5 0 8.1 0 12.9-10.8 0-21.6 0-33.2 0 0-4.6 0-8.7 0.5-12.8z"/>
	<path class="s0" d="m220.1 310.3c1 0.2 1.8 0.4 1.8 0.7 0.2 1 0.1 2 0.1 3 0 5 0 9.9 0 15.1-2.8 0.1-4.6 0.3-6.4 0.3-5.3 0-10.6 0-16.3 0 0-6.1 0-12.1 0-19 6.8 0 13.6 0 20.8-0.1z"/>
	<path class="s0" d="m566.7 328.8c0.2-4.2 0.4-7.9 0.6-12 4.5 0.2 8.5 0.4 13.1 0.6q0 15.4 0 30c-1 0.4-1.3 0.7-1.6 0.7-11.9 0.1-11.8 0.1-11.9-11.9 0-2.3-0.1-4.6-0.2-7.4z"/>
	<path class="s1" d="m470 331.4c-7.1 0-13.7 0-20.7 0 0-6.8 0-12.9 0-19.3 6.8 0 13.9 0 21.1 0 0 6.1 0 12.7-0.4 19.3z"/>
	<path class="s0" d="m200.3 60.3c-0.2-6-0.2-11.5-0.2-17.2 4.7-0.5 8.7-1.1 12.8-1 1 0 2.7 2.2 2.7 3.5 0.3 6.4 0.2 12.8 0.2 19.8-5.5 0.7-10.1 1.4-14.9 2.1-0.2-2.5-0.3-4.6-0.6-7.2z"/>
	<path class="s0" d="m468.7 60.8c-0.1 2.7-0.2 5-0.4 7.5-4.9-0.3-9.3-0.7-14.2-1 0-7.9 0-15.8 0-23.5 4.7-0.2 9.3-0.4 14.6-0.7 0 5.8 0 11.5 0 17.7z"/>
	<path class="s0" d="m597.1 329c-2.6 0-4.7 0-6.8 0 0.4-14.7-1.5-12 13.4-12.4 8.5-0.2 2 8.3 6.3 12.4-5.2 0-8.8 0-12.9 0z"/>
	<path class="s0" d="m67.4 188c-5.6-2-2.4-6.9-3.7-10.2-0.1-0.2 3-1.8 4.7-2.6 0.5-0.2 1.3 0.1 1.9 0.1 10.7-0.5 11.2 0.1 10.4 11.8-4.2 0.3-8.5 0.6-13.3 0.9z"/>
	<path class="s0" d="m92.4 171.4c9.6-0.5 9.6-0.5 8.9 8.9-0.2 2.2-0.3 4.3-0.5 7.1-4.3-0.5-8.4-1-12.8-1.4 0-3.7-0.1-7 0-10.3 0.1-2.4 0.6-4.7 4.4-4.3z"/>
	<path class="s0" d="m597.7 175.8c4.3-0.3 8.1-0.6 12-0.9 0 4.5 0 8.7 0 13.2-4.8 0-9.3 0-14.3 0-0.2-3.5-0.4-6.7-0.3-10 0-0.8 1.4-1.5 2.6-2.3z"/>
	<path class="s0" d="m577.8 215c-3.8 0-7.1 0-10.8 0 0-3.2 0.1-6.2 0-9.1-0.2-3.3 0.9-4.7 4.4-5 8.3-0.7 8.2-0.8 8.6 7.2 0.1 1.4 1.1 2.9 0.8 4.2-0.2 1-1.6 1.8-3 2.7z"/>
	<path class="s0" d="m65.3 328.8c-4.4-3.3-1.8-7.6-2-11.4 0-0.6 3.7-1.7 5.7-2.1 2.1-0.3 4.3-0.1 6.7-0.1 0 4.7 0 8.7 0 13.6-3.4 0-6.6 0-10.4 0z"/>
	<path class="s1" d="m245.9 444.6c-0.7-0.9-1.4-2.2-1.8-3.5-0.5-1.5-0.5-3-0.7-4.5q-0.8-0.1-1.5-0.1c-0.7 3-1.4 6-2.1 8.7-3-0.5-5-0.9-7.4-1.2-0.4-5.6-0.4-11.2-0.4-17.7 4.8 2.7 9.1 5.1 14 8 0 2.7 0 6.3-0.1 10.3z"/>
	<path class="s1" d="m129.3 438.3c-0.1-0.8 0-1.6 0.2-1.6 5.7-0.7 11.3-1.3 17.4-1.7-5.5 1.3-11.4 2.4-17.6 3.3z"/>
	<path class="s1" d="m496.2 168c3.2-4 6.9-5.8 11.7-5.2-3.8 2.6-6.9 4.8-10.4 7.1-0.6-0.5-0.9-1-1.3-1.9z"/>
	<path class="s0" d="m497.6 302.2c2.8 0.2 2.5 1.3 0.5 2.7-0.4-0.7-0.5-1.6-0.5-2.7z"/>
	<path class="s0" d="m114.7 435.4c0.2-0.2 0.6-0.2 1.5 0.1-0.1 0.2-0.7 0.2-1.5-0.1z"/>
	<path class="s0" d="m517.3 246.8c-0.2-0.3 0.1-0.5 0.5-0.7 0.1 0.2-0.1 0.5-0.5 0.7z"/>
	<path class="s0" d="m177.9 117.9q0.1 0.3 0.1 0.6c-0.1-0.1-0.2-0.2-0.2-0.4 0.2-0.1 0.1-0.1 0.1-0.2z"/>
	<path class="s0" d="m507.5 160.5c0.1 0 0-0.1 0 0z"/>
	<path class="s0" d="m120.6 415.2c0.2 0.6 0.3 1.3 0.3 2.4-0.2-0.5-0.4-1.3-0.3-2.4z"/>
	<path class="s0" d="m120.7 409.1c0.2 0.1 0.2 0.2 0.2 0.7-0.2 0-0.4-0.1-0.5-0.3 0-0.1 0.1-0.2 0.3-0.4z"/>
</svg>