<svg version="1.1" id="Layer_1" xmlns="http://www.w3.org/2000/svg" xmlns:xlink="http://www.w3.org/1999/xlink" x="0px" y="0px"
	 width="100%" viewBox="0 0 624 659" enable-background="new 0 0 624 659" xml:space="preserve">
<path fill="#010101" opacity="1.000000" stroke="none" 
	d="
M625.000000,223.000000 
	C625.000000,368.999969 625.000000,514.499939 625.000000,660.000000 
	C417.000061,660.000000 209.000122,660.000000 1.000142,660.000000 
	C1.000095,440.333435 1.000095,220.666870 1.000047,1.000231 
	C208.999863,1.000154 416.999725,1.000154 624.999756,1.000077 
	C625.000000,74.833336 625.000000,148.666672 625.000000,223.000000 
M130.085327,435.150055 
	C133.399323,434.428619 136.713333,433.707184 140.158829,432.957123 
	C139.835846,427.739319 139.532928,422.845428 139.551376,417.069458 
	C140.141022,405.368347 140.730667,393.667236 141.268814,382.988129 
	C122.968132,382.988129 104.678635,382.988129 86.927429,382.988129 
	C86.927429,401.057831 86.927429,417.945984 86.927429,435.167877 
	C90.598145,435.167877 93.584373,435.167877 96.910439,435.707703 
	C97.501740,435.699280 98.093040,435.690826 99.519402,436.049927 
	C100.123917,436.038391 100.728432,436.026825 101.621613,436.379944 
	C104.748230,436.917999 107.874847,437.456024 111.561218,438.515961 
	C117.463890,437.388824 123.366554,436.261719 130.085327,435.150055 
M228.013901,444.191132 
	C228.013901,440.586304 228.013901,436.981476 228.013901,434.252472 
	C223.096085,431.448151 218.845062,429.024109 214.005905,426.264648 
	C214.005905,432.806335 214.005905,438.404327 213.561096,444.697693 
	C213.561096,458.363434 213.561096,472.029205 213.561096,485.882446 
	C217.603333,485.882446 222.360153,485.882446 227.515717,485.882446 
	C227.741882,483.414886 228.136871,481.130463 228.129120,478.847443 
	C228.090820,467.572205 227.945923,456.297333 228.013901,444.191132 
M160.444046,118.527351 
	C172.019379,110.700256 183.519501,102.757858 195.220657,95.123596 
	C198.315781,93.104218 199.552963,90.637062 199.243423,87.267189 
	C198.934143,83.900223 198.301651,80.562950 197.678925,76.312233 
	C183.730362,85.469589 170.541046,94.128487 157.679855,102.571953 
	C158.476776,107.864494 159.239868,112.932419 159.681137,118.153755 
	C159.802322,118.274094 159.923492,118.394432 160.044678,118.514771 
	C159.987335,118.320625 159.929993,118.126480 160.444046,118.527351 
M479.452118,302.381714 
	C479.563385,303.281464 479.674652,304.181213 479.516876,305.939087 
	C479.696747,308.625488 479.876617,311.311920 479.854889,314.916870 
	C479.902649,320.742889 479.564636,326.606354 480.125885,332.382477 
	C480.540497,336.648987 478.529083,338.769653 475.436096,340.775330 
	C454.659637,354.248077 433.897217,367.742737 413.170044,381.291107 
	C408.948761,384.050354 404.896423,387.067993 400.975891,389.819366 
	C405.490021,396.201141 409.589752,401.997070 413.671844,407.768036 
	C441.714478,387.936066 470.340576,368.242218 499.833557,351.522095 
	C499.833557,334.578735 499.833557,317.787842 499.984436,300.070770 
	C499.984436,287.474945 499.984436,274.879120 499.984436,262.190826 
	C493.393585,262.190826 486.527161,262.190826 479.800262,262.190826 
	C479.800262,275.694733 479.800262,288.816956 479.452118,302.381714 
M386.755157,423.997681 
	C391.599121,421.202423 396.443085,418.407135 401.289703,415.610321 
	C396.505493,409.387054 391.828094,403.302734 387.577087,397.773010 
	C379.586151,403.003601 371.972015,407.836945 364.515106,412.901764 
	C351.423370,421.793762 338.500916,430.937073 325.334106,439.714966 
	C322.503662,441.601959 322.787567,443.505127 323.317139,446.874512 
	C323.317139,453.362427 323.317139,459.850342 323.317139,466.636932 
	C344.624878,452.244141 365.359100,438.238739 386.755157,423.997681 
M499.546387,246.904251 
	C499.709229,246.606293 499.872070,246.308350 500.683319,245.462738 
	C500.683319,216.104004 500.683319,186.745255 500.683319,157.138153 
	C497.321289,158.460312 494.998810,159.373642 492.676331,160.286987 
	C492.547150,159.974991 492.417969,159.662994 492.288818,159.351013 
	C493.956207,157.799301 495.623596,156.247604 497.509277,154.492752 
	C469.832794,137.070923 442.473785,119.848923 415.587860,102.924721 
	C411.326782,108.865936 407.105103,114.752251 402.739410,120.839348 
	C410.020447,125.669975 416.931244,130.238983 423.825775,134.832458 
	C439.147797,145.040741 454.400421,155.355728 469.845734,165.373734 
	C472.130280,166.855499 475.310089,166.956940 478.324341,168.306381 
	C478.634460,168.870041 478.944611,169.433701 478.958496,170.894226 
	C478.958496,196.063873 478.958496,221.233505 478.958496,246.790665 
	C485.939545,246.790665 492.476105,246.790665 499.546387,246.904251 
M386.279755,155.129196 
	C380.740845,154.761078 375.171906,153.836700 369.668854,154.133362 
	C355.452545,154.899704 342.556213,159.590530 330.639587,167.579468 
	C325.553925,170.988907 321.337036,173.458878 323.743683,180.748169 
	C324.834229,184.051285 323.911987,188.018143 323.907501,191.683884 
	C323.903748,194.774673 323.906738,197.865479 323.906738,200.751968 
	C332.487183,194.886795 340.354340,188.418930 349.194366,183.821716 
	C355.910828,180.328857 363.778564,177.764496 371.284241,177.319244 
	C392.475830,176.062149 408.064697,186.565262 419.104492,203.916031 
	C430.606140,221.992538 429.417084,248.377441 416.435120,265.266632 
	C411.673615,271.461212 405.100281,276.435303 398.804352,281.247803 
	C374.398926,299.902924 349.766113,318.260468 325.251709,336.773499 
	C324.295898,337.495331 323.037781,338.660217 323.016144,339.642822 
	C322.836182,347.811279 322.914124,355.985413 322.914124,365.089203 
	C330.282715,359.894196 336.458984,355.737244 342.425598,351.298462 
	C366.068695,333.709442 389.819824,316.257355 413.151855,298.263000 
	C421.078583,292.149658 429.164734,285.511536 434.960449,277.507477 
	C450.588074,255.925308 452.275238,231.630157 443.907166,206.941452 
	C434.615295,179.527191 414.890686,162.805023 386.279755,155.129196 
M307.821136,174.293686 
	C302.101532,170.414215 296.665558,166.005051 290.605927,162.760620 
	C275.998016,154.939301 260.441376,152.314774 243.862411,154.822372 
	C225.771988,157.558624 211.294174,166.134552 199.904709,180.148438 
	C184.395584,199.231247 179.231979,221.149933 182.952347,245.224915 
	C185.984024,264.843292 193.968781,281.853058 210.272339,294.097107 
	C216.496353,298.771423 222.877594,303.235870 229.163467,307.828430 
	C248.956146,322.289246 268.696381,336.822327 288.547241,351.202698 
	C294.883453,355.792816 301.501617,359.993652 308.439636,364.675507 
	C308.439636,356.894562 308.616943,350.104645 308.328400,343.334595 
	C308.245087,341.379791 307.374573,338.733856 305.931915,337.669434 
	C280.540161,318.934998 255.548187,299.582336 229.337708,282.056427 
	C205.475464,266.100708 198.410110,235.675064 205.935303,212.943344 
	C212.739197,192.390518 236.320572,176.366135 254.192001,176.415085 
	C269.206604,176.456207 281.342346,182.745636 293.095428,190.792236 
	C297.869690,194.060883 302.594055,197.402451 308.177673,201.293869 
	C308.177673,191.548355 308.177673,183.290039 307.821136,174.293686 
M424.143829,636.424072 
	C424.143829,607.984375 424.143829,579.544739 424.143829,549.474548 
	C420.010529,551.671082 416.287750,552.677856 413.989075,555.059265 
	C407.886078,561.381897 402.349792,568.257446 396.677032,574.987976 
	C389.358490,583.671204 382.126373,592.427246 375.292236,600.629578 
	C364.533813,586.892761 353.697968,573.465820 343.361603,559.664734 
	C339.021637,553.870056 333.941345,551.882202 327.175354,553.342102 
	C327.175354,587.241272 327.175354,621.048035 327.175354,654.373108 
	C334.368500,654.373108 341.145599,654.373108 348.365875,654.373108 
	C348.945679,636.432373 349.510803,618.946350 350.075928,601.460388 
	C350.495361,601.386292 350.914795,601.312195 351.334229,601.238098 
	C359.262909,611.502502 367.191589,621.766968 375.247711,632.196350 
	C384.175385,622.121765 393.203888,611.933472 402.232391,601.745117 
	C402.655273,601.962036 403.078156,602.178894 403.501038,602.395813 
	C403.501038,619.559692 403.501038,636.723633 403.501038,653.650757 
	C410.824982,653.650757 417.577576,653.650757 424.176178,653.650757 
	C424.176178,647.979187 424.176178,642.687988 424.143829,636.424072 
M291.758118,639.268799 
	C306.313080,624.171997 311.487152,606.342224 304.503357,586.520569 
	C297.985138,568.020325 283.656616,557.063232 264.552185,553.521973 
	C245.643661,550.017029 229.874725,556.566406 216.344681,570.269653 
	C197.871613,588.978943 199.345367,622.215149 219.496811,639.128479 
	C241.785248,657.835327 266.733185,661.000732 291.758118,639.268799 
M172.527573,653.772156 
	C176.134857,653.772156 179.742126,653.772156 183.335083,653.772156 
	C183.335083,620.001648 183.335083,586.468506 183.335083,552.944580 
	C176.299942,552.944580 169.701630,552.944580 162.948715,552.944580 
	C162.756012,554.237183 162.504700,555.193298 162.486908,556.153748 
	C162.286484,566.963867 162.216660,577.778015 161.835953,588.581299 
	C161.784485,590.041626 160.246353,592.676575 159.352524,592.695679 
	C146.621765,592.966675 133.883408,592.880432 120.524467,592.880432 
	C120.524467,579.330444 120.524467,566.273376 120.524467,553.157715 
	C113.300987,553.157715 106.709396,553.157715 99.472351,553.157715 
	C99.472351,586.959900 99.472351,620.468079 99.472351,653.890625 
	C106.477654,653.890625 112.889320,653.890625 119.460403,653.890625 
	C119.589241,652.927612 119.732040,652.297058 119.749756,651.662964 
	C120.070633,640.178406 120.291199,628.689758 120.788887,617.213074 
	C120.854141,615.708374 122.296814,612.999512 123.145782,612.981934 
	C136.230347,612.710449 149.322266,612.792542 162.969620,612.792542 
	C162.969620,626.816162 162.969620,640.230896 162.969620,653.767517 
	C166.279999,653.767517 168.914597,653.767517 172.527573,653.772156 
M596.233337,632.036377 
	C582.338501,637.330872 571.199036,631.029297 560.909668,623.898010 
	C556.095337,629.164246 551.348450,634.356689 546.399780,639.769836 
	C559.144165,646.738770 571.772522,654.049011 587.526001,653.378845 
	C599.993958,652.848389 610.393860,649.099609 618.131287,639.055908 
	C625.297058,629.754333 626.994507,609.482910 610.740540,600.981323 
	C605.357910,598.165955 599.343750,596.550049 593.599854,594.435852 
	C588.637207,592.609192 583.485474,591.199280 578.723694,588.955078 
	C575.050903,587.224182 571.890747,584.245728 572.936890,579.526123 
	C573.954041,574.937500 577.586670,572.595581 581.940125,572.036255 
	C585.169006,571.621338 588.728821,571.565796 591.784729,572.507202 
	C597.253540,574.192017 602.453674,576.748901 607.885071,578.990356 
	C611.672791,574.463501 615.818420,569.508850 620.338379,564.106812 
	C615.517334,561.447327 610.892517,558.557495 605.989868,556.260803 
	C595.197632,551.205200 584.035461,550.124268 572.488953,553.722351 
	C556.729004,558.633484 548.106384,572.342896 551.021545,587.803040 
	C553.132629,598.999207 560.870483,604.754028 570.668762,608.358032 
	C578.263428,611.151550 586.161133,613.122986 593.749146,615.932495 
	C602.897400,619.319702 603.803528,624.539856 596.233337,632.036377 
M520.275818,610.178284 
	C510.351410,590.081238 500.426971,569.984192 490.502533,549.887207 
	C489.875092,549.957458 489.247620,550.027710 488.620148,550.098022 
	C469.050964,583.251526 453.543030,618.392761 437.086060,654.465027 
	C443.992554,654.465027 449.274139,654.197571 454.513489,654.552673 
	C458.450348,654.819397 460.540955,653.576233 461.856934,649.769653 
	C463.478333,645.079651 465.607208,640.532532 467.911072,636.130005 
	C468.637390,634.742065 470.589722,633.196960 472.053436,633.121033 
	C482.991638,632.553894 493.947540,632.202576 504.899261,632.164062 
	C506.450653,632.158569 508.637756,633.870972 509.450134,635.372742 
	C512.207947,640.470581 514.308594,645.923096 517.049683,651.031189 
	C517.820923,652.468323 519.875427,653.989929 521.432739,654.093079 
	C526.996643,654.461731 532.599915,654.237366 539.467224,654.237366 
	C532.872742,639.093811 526.727722,624.982605 520.275818,610.178284 
M141.065979,149.604294 
	C138.085678,151.612701 135.105392,153.621094 131.937256,155.756073 
	C131.998062,186.015808 131.334625,216.512863 132.195328,246.862732 
	C138.333099,246.862732 143.307037,246.731415 148.270035,246.907684 
	C151.730820,247.030609 152.873291,245.734161 152.850601,242.233261 
	C152.710281,220.600220 153.052811,198.959946 152.599030,177.335419 
	C152.455322,170.487900 153.156693,165.428009 160.884796,163.970108 
	C161.960495,163.767166 162.934616,162.904144 163.901581,162.264786 
	C179.679108,151.832291 195.425537,141.352600 211.229736,130.960724 
	C217.536621,126.813698 223.966705,122.854027 230.755478,118.545853 
	C226.011703,111.476219 221.903381,105.353592 217.820953,99.269562 
	C216.710159,100.248444 216.034058,100.994659 215.221893,101.537254 
	C204.041245,109.006927 192.922058,116.572777 181.626205,123.864731 
	C168.375504,132.418640 154.967209,140.728439 141.065979,149.604294 
M183.707977,359.802582 
	C173.944366,353.843140 164.138046,347.951233 154.471863,341.837738 
	C153.279770,341.083801 152.152771,339.151855 152.145233,337.759552 
	C152.006851,312.220856 152.044052,286.681183 152.044052,261.029205 
	C145.677567,261.029205 138.822571,261.029205 131.856720,261.029205 
	C131.856720,291.874603 131.856720,322.416260 131.856720,351.856049 
	C161.409653,371.090790 190.134094,389.786316 218.789948,408.437164 
	C223.054977,402.413177 227.678848,395.882324 231.781525,390.087616 
	C215.979385,380.156128 200.130142,370.195007 183.707977,359.802582 
M53.084366,587.398987 
	C53.084366,582.641479 53.084366,577.883972 53.084366,572.677002 
	C62.396969,572.677002 71.454308,572.677002 80.770004,572.677002 
	C80.770004,567.464600 80.514854,562.817871 80.847214,558.213623 
	C81.135811,554.215637 79.801895,553.090637 75.800758,553.148682 
	C53.481224,553.472412 31.157593,553.510681 8.835605,553.678650 
	C7.736809,553.686890 6.640281,553.996582 5.268268,554.208252 
	C5.268268,560.567139 5.268268,566.645569 5.268268,573.078247 
	C12.799246,573.078247 20.239355,573.028564 27.678040,573.109741 
	C29.787128,573.132751 32.048485,572.999695 32.033253,576.386658 
	C31.972664,589.861816 32.102695,603.337708 32.128986,616.813416 
	C32.152954,629.098083 32.134064,641.382874 32.134064,654.174194 
	C39.294689,654.174194 45.777782,654.174194 53.088596,654.174194 
	C53.088596,631.901367 53.088596,610.134705 53.084366,587.398987 
M490.687958,74.391205 
	C491.660400,92.572052 492.632843,110.752899 493.613098,129.080017 
	C510.360077,128.249664 527.848267,127.382561 545.567749,126.503983 
	C545.567749,108.227829 545.567749,90.269104 545.567749,72.565651 
	C539.246704,72.962921 533.216736,73.551712 527.177246,73.676956 
	C515.317688,73.922905 503.452850,73.910950 490.687958,74.391205 
M143.007248,76.403702 
	C143.074051,75.176559 143.140854,73.949409 143.191940,73.011147 
	C124.253006,73.011147 105.768913,73.011147 87.032623,73.011147 
	C86.943680,74.667900 86.848663,75.450760 86.867607,76.230850 
	C87.234337,91.329033 87.822716,106.426186 87.873451,121.525208 
	C87.890167,126.497719 89.780746,127.875305 94.336967,127.832497 
	C109.426712,127.690720 124.518616,127.778976 139.879700,127.778976 
	C139.879700,125.107674 139.889786,122.491737 139.878021,119.875908 
	C139.813782,105.594528 138.736298,91.243393 143.007248,76.403702 
M519.115601,439.464539 
	C526.431885,438.177734 533.748535,436.892578 541.064392,435.603363 
	C543.846497,435.113068 544.986755,433.994537 544.999756,430.641113 
	C545.057739,415.721832 545.645508,400.804840 545.997253,385.885956 
	C546.018860,384.970612 545.657898,384.046234 545.500549,383.255127 
	C527.355225,383.255127 509.517242,383.255127 491.077057,383.255127 
	C491.077057,400.360046 491.077057,417.545868 491.077057,435.097900 
	C499.842438,436.621918 509.078552,438.227783 519.115601,439.464539 
M365.805328,69.707230 
	C351.993225,60.490303 338.181091,51.273380 322.987335,41.134476 
	C322.987335,49.373013 323.135040,56.612595 322.918182,63.841244 
	C322.825073,66.946381 324.039703,68.599556 326.600525,70.169907 
	C335.230469,75.462013 343.807220,80.858025 352.194183,86.525230 
	C364.972595,95.159767 377.575500,104.054008 390.461273,112.982315 
	C394.412354,106.096405 398.138092,99.603210 401.830627,93.167908 
	C390.103119,85.559753 378.237885,77.862259 365.805328,69.707230 
M277.653473,88.118813 
	C287.455383,81.651848 297.271301,75.205742 307.028473,68.671959 
	C307.693848,68.226395 308.282898,67.127159 308.292114,66.324860 
	C308.384705,58.268589 308.348450,50.210838 308.348450,41.730511 
	C282.415497,58.548168 256.809265,75.153931 231.388107,91.639671 
	C235.735397,98.113159 239.931763,104.361908 244.042389,110.482986 
	C255.009171,103.154175 266.008759,95.803429 277.653473,88.118813 
M238.155334,406.653381 
	C235.219513,409.781830 232.283691,412.910278 229.541351,415.832550 
	C256.142365,432.473969 282.338959,448.862427 308.220428,465.053711 
	C308.220428,457.955261 308.031097,451.183594 308.306000,444.430817 
	C308.430206,441.379913 307.442322,439.705994 304.902008,438.073303 
	C285.086395,425.337372 265.373535,412.441498 245.013580,399.194672 
	C243.089005,401.301239 240.872406,403.727478 238.155334,406.653381 
M465.386047,98.157326 
	C458.048706,93.071548 450.822357,87.814102 443.328888,82.969826 
	C439.369385,80.410133 436.338959,76.925148 431.387390,75.117241 
	C426.427979,73.306442 421.564789,69.136345 421.931763,61.315933 
	C422.450775,50.255047 421.144043,39.107304 420.581207,27.998539 
	C420.519165,26.773932 420.218445,25.561415 420.033936,24.378759 
	C415.329163,25.374567 411.166840,26.255571 406.769440,27.186329 
	C406.858337,28.985102 407.005005,30.930752 407.042542,32.878506 
	C407.291687,45.794449 407.460907,58.712410 407.819550,71.625183 
	C407.866394,73.310997 408.341370,75.564766 409.484436,76.539093 
	C414.228760,80.583214 419.096741,84.556320 424.305847,87.964859 
	C433.565338,94.023735 443.204254,99.500992 452.496826,105.511658 
	C459.941376,110.326973 467.107880,115.572212 474.726227,120.854378 
	C474.830261,119.085701 474.757080,117.782089 475.004120,116.542282 
	C476.670380,108.180199 474.576752,101.753204 465.386047,98.157326 
M261.448395,228.091644 
	C247.193344,228.356033 232.938309,228.620438 218.732254,228.883926 
	C218.160324,235.101395 217.655472,240.589752 217.110458,246.514557 
	C220.742599,246.514557 223.852478,246.532913 226.962036,246.510544 
	C232.517670,246.470566 238.073822,246.332291 243.628326,246.385757 
	C246.064316,246.409195 247.507172,247.366302 247.340454,250.360336 
	C246.767929,260.642181 246.456314,270.938660 246.062576,281.230225 
	C246.009430,282.619659 246.055283,284.012878 246.055283,284.567139 
	C253.403351,284.567139 260.108307,284.567139 266.729980,284.567139 
	C266.729980,265.200836 266.729980,246.664108 266.729980,228.064758 
	C265.048279,228.064758 263.731506,228.064758 261.448395,228.091644 
M529.098511,358.998383 
	C530.184387,358.108429 531.920654,357.394348 532.218811,356.291443 
	C532.813721,354.091187 532.720032,351.678162 532.735046,349.351929 
	C532.879028,327.046021 532.995911,304.739960 533.098694,282.433838 
	C533.132935,274.991241 533.104126,267.548401 533.104126,260.009277 
	C527.846191,260.451691 523.105591,260.850586 517.798462,261.297119 
	C517.798462,293.766571 517.798462,326.261841 517.798462,358.998169 
	C521.579529,358.998169 524.875122,358.998169 529.098511,358.998383 
M114.569855,327.501678 
	C114.569855,304.951324 114.569855,282.401001 114.569855,259.698151 
	C109.219742,260.027313 104.648895,260.308533 100.067688,260.590393 
	C100.067688,293.137787 100.067688,325.428741 100.067688,357.514404 
	C105.515251,357.514404 110.181839,357.514404 114.575638,357.514404 
	C114.575638,347.484039 114.575638,337.992981 114.569855,327.501678 
M517.374390,201.499847 
	C517.374390,216.086380 517.374390,230.672913 517.374390,245.256317 
	C523.178162,245.256317 527.925415,245.256317 532.921936,245.256317 
	C532.921936,214.606766 532.921936,184.093796 532.921936,153.800934 
	C527.837830,153.800934 522.993225,153.800934 517.355774,153.800934 
	C517.355774,169.603531 517.355774,185.051712 517.374390,201.499847 
M114.753052,204.499985 
	C114.753052,187.227737 114.753052,169.955490 114.753052,153.103699 
	C109.934402,153.103699 105.358498,153.103699 100.273407,153.103699 
	C100.273407,183.697983 100.273407,213.874557 100.273407,244.028046 
	C105.116768,244.028046 109.586983,244.028046 114.750801,244.028046 
	C114.750801,231.067719 114.750801,218.283875 114.753052,204.499985 
M470.695221,390.918091 
	C460.017365,398.190857 449.525360,405.760468 438.582733,412.610229 
	C433.170105,415.998383 432.076447,420.048401 432.809540,425.912384 
	C434.165161,436.755920 434.983490,447.669525 435.878326,458.566010 
	C436.144745,461.810242 435.919464,465.094818 435.919464,468.732117 
	C441.135925,468.732117 445.707428,468.732117 450.840912,468.732117 
	C450.133972,454.210449 452.386810,439.615448 447.792114,424.597778 
	C455.242310,419.304474 463.372803,413.582886 471.421844,407.748962 
	C472.614594,406.884460 474.256165,405.491425 474.259033,404.339386 
	C474.269348,400.205170 473.734131,396.060760 473.212952,391.944519 
	C473.142029,391.384613 471.979919,390.962860 470.695221,390.918091 
M160.250687,394.781097 
	C159.958328,396.918304 159.905762,399.123322 159.324371,401.178772 
	C158.065125,405.630920 159.921844,408.065979 163.703568,410.304016 
	C169.895615,413.968536 175.811874,418.122742 181.650558,422.338928 
	C182.702850,423.098846 183.287460,425.145813 183.300659,426.605682 
	C183.423111,440.161407 183.373062,453.718658 183.373062,467.689484 
	C188.044464,467.689484 192.746841,467.689484 197.402100,467.689484 
	C198.495026,450.414459 199.575851,433.330414 200.670929,416.021332 
	C189.721390,409.230011 177.764145,401.721863 165.670532,394.440216 
	C164.306503,393.618866 162.172729,394.075958 160.250687,394.781097 
M360.324768,480.776886 
	C367.741882,476.090240 375.004761,471.133636 382.615417,466.785828 
	C391.970184,461.441650 395.515198,454.219086 391.495117,443.880096 
	C391.387390,443.603027 391.115448,443.389801 390.941315,443.173248 
	C368.064270,458.377716 345.205719,473.569885 322.174011,488.877136 
	C324.005066,492.811066 325.809357,496.687378 328.109436,501.628906 
	C338.687164,494.745605 349.177124,487.919403 360.324768,480.776886 
M389.833344,64.876717 
	C390.650452,65.248161 391.467590,65.619606 391.956879,65.842026 
	C395.705841,56.321880 394.331940,49.108345 384.810181,43.749718 
	C371.912262,36.491089 359.589417,28.213419 346.986145,20.427462 
	C340.193024,16.230852 333.329651,12.148028 325.901703,7.653053 
	C325.124115,12.199286 324.242676,15.732166 324.048309,19.302460 
	C323.972565,20.693449 325.071686,22.736435 326.266846,23.521168 
	C347.185760,37.256348 368.202667,50.842247 389.833344,64.876717 
M249.078629,60.605305 
	C267.649017,48.151360 286.237793,35.724541 304.744354,23.176517 
	C305.863831,22.417482 307.018341,20.669460 306.973938,19.423813 
	C306.822662,15.183824 306.141205,10.962748 305.631714,6.465511 
	C304.484558,6.823845 303.438171,6.923607 302.654388,7.429892 
	C292.397369,14.055550 282.133820,20.672880 271.961670,27.427523 
	C263.310272,33.172340 254.696686,38.982525 246.250763,45.021667 
	C244.441391,46.315434 242.523926,48.590160 242.231277,50.638069 
	C241.615616,54.946308 242.044220,59.403774 242.044220,64.907066 
	C244.934677,63.153316 246.698639,62.083050 249.078629,60.605305 
M303.976562,498.921539 
	C304.768707,499.434418 305.560852,499.947296 306.607269,500.624786 
	C307.617645,495.409760 308.549927,490.597870 309.484711,485.772919 
	C287.422516,471.925720 265.318024,458.052002 243.201355,444.170624 
	C240.330933,458.385498 240.730133,459.767548 249.115295,464.943085 
	C267.197723,476.104034 285.276733,487.270447 303.976562,498.921539 
M63.870190,273.214478 
	C70.653885,273.214478 77.437584,273.214478 83.982208,273.214478 
	C83.982208,268.251831 83.982208,263.983398 83.982208,259.931396 
	C63.190990,259.931396 42.728073,259.931396 21.801689,259.931396 
	C21.801689,265.038269 21.801689,269.555634 21.801689,273.253021 
	C35.554092,273.253021 49.243378,273.253021 63.870190,273.214478 
M590.496094,273.757996 
	C597.921143,273.757996 605.346191,273.757996 612.994202,273.757996 
	C612.994202,269.066376 612.994202,264.677765 612.994202,260.552246 
	C591.235535,260.552246 569.727173,260.552246 548.389221,260.552246 
	C548.389221,265.438049 548.389221,269.682343 548.389221,273.765106 
	C562.277161,273.765106 575.886047,273.765106 590.496094,273.757996 
M80.449692,231.209457 
	C74.962379,231.258331 69.474785,231.369080 63.987820,231.343506 
	C51.515724,231.285385 39.043503,231.086990 26.572622,231.161499 
	C25.123768,231.170151 22.546183,232.401398 22.436171,233.303055 
	C21.970169,237.122437 22.238556,241.031433 22.238556,244.787720 
	C40.688702,244.787720 58.117252,244.777695 75.545784,244.791870 
	C84.498802,244.799149 84.492134,244.818420 84.807487,236.095047 
	C84.865143,234.500000 85.001610,232.907776 85.120018,231.022629 
	C83.673843,231.093002 82.555458,231.147430 80.449692,231.209457 
M70.487312,215.630753 
	C74.933701,215.630753 79.380089,215.630753 83.914482,215.630753 
	C84.125282,210.811859 84.310699,206.573227 84.468254,202.971497 
	C63.185078,202.971497 42.132774,202.971497 20.756691,202.971497 
	C21.242208,207.846085 21.626684,211.706223 22.017591,215.630936 
	C38.221073,215.630936 53.856369,215.630936 70.487312,215.630753 
M405.955109,457.404266 
	C405.538269,466.620056 405.121429,475.835846 404.688354,485.411011 
	C409.954803,485.411011 414.373322,485.411011 419.167847,485.411011 
	C421.682037,465.275665 421.910126,445.297638 418.683655,425.410522 
	C414.956818,427.560822 411.029205,429.613647 407.369629,432.066406 
	C406.248535,432.817871 405.236908,434.670258 405.245453,436.011719 
	C405.288605,442.818481 405.683716,449.622986 405.955109,457.404266 
M596.497437,245.021683 
	C601.930725,245.021683 607.364014,245.021683 613.163757,245.021683 
	C613.163757,240.132706 613.163757,236.222809 613.163757,231.884796 
	C592.032166,231.884796 570.823669,231.884796 549.265747,231.884796 
	C549.265747,236.445236 549.265747,240.662781 549.265747,245.022156 
	C564.876099,245.022156 580.187195,245.022156 596.497437,245.021683 
M224.530106,74.765732 
	C225.365585,72.910027 226.684662,71.116692 226.933746,69.185356 
	C227.420502,65.411125 227.288910,61.558937 227.450089,57.740574 
	C227.863419,47.948643 228.371719,38.159550 228.632156,28.363741 
	C228.666550,27.069271 227.502670,24.624521 226.852356,24.610342 
	C222.364090,24.512461 217.864838,24.918455 213.006393,25.182184 
	C214.387253,44.502682 209.696487,63.350548 214.024246,82.625145 
	C217.608994,79.962029 220.777664,77.608017 224.530106,74.765732 
M65.496803,301.015106 
	C71.531639,300.803040 77.566467,300.590973 83.161064,300.394409 
	C83.161064,295.576172 83.161064,291.827759 83.161064,288.127747 
	C62.853722,288.127747 42.955685,288.127747 22.640205,288.127747 
	C22.640205,292.529236 22.640205,296.606964 22.640205,301.015289 
	C36.639149,301.015289 50.567902,301.015289 65.496803,301.015106 
M368.941559,242.173630 
	C368.544403,245.050476 369.613617,246.447495 372.701080,246.421967 
	C378.354218,246.375244 384.008972,246.590179 389.663483,246.623550 
	C396.718445,246.665176 403.773834,246.633545 410.541199,246.633545 
	C410.541199,239.958832 410.541199,234.464233 410.541199,228.480927 
	C396.561951,228.480927 382.861115,228.480927 368.828979,228.480927 
	C368.828979,232.958221 368.828979,237.103760 368.941559,242.173630 
M611.984497,289.097321 
	C591.281189,289.097321 570.577820,289.097321 549.537842,289.097321 
	C549.209473,293.058105 548.898743,296.806366 548.556335,300.936951 
	C569.929749,300.936951 590.970764,300.936951 612.662781,300.936951 
	C612.662781,296.981995 612.662781,293.342194 611.984497,289.097321 
M562.781616,157.770981 
	C562.189087,156.847290 561.597351,155.129883 561.003845,155.129242 
	C557.260498,155.125183 553.516846,155.502151 548.704834,155.824936 
	C548.704834,163.342438 548.831482,170.621399 548.677002,177.894394 
	C548.403992,190.749634 548.332458,190.750626 561.312195,189.992874 
	C561.602295,189.975937 561.878235,189.717316 562.784851,189.249115 
	C562.784851,179.290009 562.784851,169.008926 562.781616,157.770981 
M70.359123,342.158661 
	C70.524277,343.579559 70.689430,345.000488 70.887108,346.701233 
	C73.488045,346.701233 75.684143,346.427979 77.785553,346.757843 
	C82.211433,347.452698 83.305832,345.157776 83.311424,341.387512 
	C83.318336,336.727844 83.592857,332.067688 83.562332,327.408966 
	C83.469437,313.229218 87.043556,314.943085 70.482147,315.708405 
	C70.354195,315.714325 70.234802,315.905518 69.189102,316.792633 
	C69.534775,324.451721 69.914124,332.856903 70.359123,342.158661 
M578.530090,203.376358 
	C578.530090,207.509552 578.530090,211.642746 578.530090,216.248367 
	C590.062622,216.248367 600.936584,216.248367 611.696655,216.248367 
	C611.696655,211.383896 611.696655,206.849579 611.696655,203.339905 
	C600.642212,203.339905 590.010010,203.339905 578.530090,203.376358 
M201.677490,310.371033 
	C194.906311,310.371033 188.135147,310.371033 181.284668,310.371033 
	C181.284668,317.283478 181.284668,323.315216 181.284668,329.421936 
	C186.988373,329.421936 192.298309,329.445374 197.607803,329.408875 
	C199.404770,329.396545 201.200714,329.232574 203.991425,329.085480 
	C203.991425,323.907471 203.991516,318.967926 203.991379,314.028351 
	C203.991348,313.028534 204.108490,312.006409 203.925781,311.041077 
	C203.861984,310.704041 203.057724,310.507141 201.677490,310.371033 
M548.807068,329.251068 
	C548.849365,331.581757 548.924072,333.912415 548.928528,336.243164 
	C548.951355,348.151642 548.945007,348.154327 560.846436,348.057953 
	C561.138977,348.055603 561.429688,347.820892 562.436890,347.384460 
	C562.436890,337.667358 562.436890,327.652008 562.436890,317.358978 
	C557.764282,317.150360 553.822632,316.974365 549.297424,316.772308 
	C549.067139,320.859650 548.855042,324.624786 548.807068,329.251068 
M452.422638,331.441742 
	C452.422638,324.836823 452.422638,318.231903 452.422638,312.059357 
	C445.221191,312.059357 438.137451,312.059357 431.252899,312.059357 
	C431.252899,318.522491 431.252899,324.550720 431.252899,331.431122 
	C438.290314,331.431122 444.913025,331.431122 452.422638,331.441742 
M182.427505,60.710907 
	C182.562256,62.874279 182.697006,65.037651 182.851410,67.516624 
	C187.695496,66.817970 192.342743,66.147697 197.772339,65.364594 
	C197.772339,58.435055 197.925201,51.982899 197.641266,45.550022 
	C197.585587,44.288544 195.854721,42.074238 194.871170,42.060097 
	C190.837738,42.002110 186.794540,42.624908 182.137344,43.054085 
	C182.137344,48.786255 182.137344,54.334099 182.427505,60.710907 
M450.733948,60.316151 
	C450.733948,54.585598 450.733948,48.855042 450.733948,43.112961 
	C445.355713,43.353775 440.782593,43.558540 436.135956,43.766594 
	C436.135956,51.519218 436.135956,59.379913 436.135956,67.274826 
	C441.022552,67.644623 445.419159,67.977333 450.304688,68.347046 
	C450.453156,65.817146 450.587097,63.534481 450.733948,60.316151 
M579.549561,329.033081 
	C583.180542,329.033081 586.811584,329.033081 591.977173,329.033081 
	C587.731812,324.901825 594.234436,316.404694 585.669006,316.612518 
	C570.821289,316.972809 572.720398,314.307068 572.267944,329.032654 
	C574.359741,329.032654 576.470459,329.032654 579.549561,329.033081 
M49.831585,188.030701 
	C54.181149,187.727646 58.530708,187.424591 62.723484,187.132462 
	C63.536293,175.357742 62.989445,174.795044 52.329830,175.297806 
	C51.673859,175.328735 50.902172,174.984634 50.372292,175.226608 
	C48.679077,175.999863 45.576771,177.563019 45.659332,177.770508 
	C46.992462,181.121338 43.807220,185.997543 49.831585,188.030701 
M73.915764,171.363663 
	C70.616394,171.026443 70.113869,173.315292 70.022354,175.727203 
	C69.897629,179.014511 69.991249,182.310104 69.991249,185.971359 
	C74.384270,186.442841 78.499763,186.884521 82.847015,187.351074 
	C83.022751,184.567520 83.138069,182.453339 83.292641,180.342026 
	C83.987289,170.853348 83.991310,170.853638 73.915764,171.363663 
M579.270752,175.877075 
	C578.499023,176.619736 577.093262,177.339813 577.065857,178.109024 
	C576.950012,181.358612 577.244629,184.622849 577.400696,188.140961 
	C582.445496,188.140961 586.875122,188.140961 591.699097,188.140961 
	C591.699097,183.591110 591.699097,179.387451 591.699097,174.897736 
	C587.760925,175.208160 583.973267,175.506729 579.270752,175.877075 
M560.249390,215.002121 
	C561.161377,214.108871 562.631165,213.329910 562.843567,212.293320 
	C563.107117,211.006805 562.112854,209.518509 562.038269,208.097595 
	C561.615601,200.052460 561.669678,200.248184 553.390686,200.906219 
	C549.854553,201.187271 548.780396,202.628418 548.963196,205.886993 
	C549.127319,208.813522 548.997803,211.756516 548.997803,215.002258 
	C552.733459,215.002258 556.017151,215.002258 560.249390,215.002121 
M47.797192,328.803040 
	C51.052509,328.803040 54.307823,328.803040 57.716225,328.803040 
	C57.716225,323.944122 57.716225,319.879150 57.716225,315.240753 
	C55.294300,315.240753 53.106262,314.953217 51.034985,315.321808 
	C48.976917,315.688049 45.299721,316.795441 45.329792,317.437469 
	C45.506889,321.218353 42.920139,325.545807 47.797192,328.803040 
z"/>
<path fill="#FBFDFD" opacity="1.000000" stroke="none" 
	d="
M386.659454,155.303040 
	C414.890686,162.805023 434.615295,179.527191 443.907166,206.941452 
	C452.275238,231.630157 450.588074,255.925308 434.960449,277.507477 
	C429.164734,285.511536 421.078583,292.149658 413.151855,298.263000 
	C389.819824,316.257355 366.068695,333.709442 342.425598,351.298462 
	C336.458984,355.737244 330.282715,359.894196 322.914124,365.089203 
	C322.914124,355.985413 322.836182,347.811279 323.016144,339.642822 
	C323.037781,338.660217 324.295898,337.495331 325.251709,336.773499 
	C349.766113,318.260468 374.398926,299.902924 398.804352,281.247803 
	C405.100281,276.435303 411.673615,271.461212 416.435120,265.266632 
	C429.417084,248.377441 430.606140,221.992538 419.104492,203.916031 
	C408.064697,186.565262 392.475830,176.062149 371.284241,177.319244 
	C363.778564,177.764496 355.910828,180.328857 349.194366,183.821716 
	C340.354340,188.418930 332.487183,194.886795 323.906738,200.751968 
	C323.906738,197.865479 323.903748,194.774673 323.907501,191.683884 
	C323.911987,188.018143 324.834229,184.051285 323.743683,180.748169 
	C321.337036,173.458878 325.553925,170.988907 330.639587,167.579468 
	C342.556213,159.590530 355.452545,154.899704 369.668854,154.133362 
	C375.171906,153.836700 380.740845,154.761078 386.659454,155.303040 
z"/>
<path fill="#FBFDFD" opacity="1.000000" stroke="none" 
	d="
M307.999390,174.662720 
	C308.177673,183.290039 308.177673,191.548355 308.177673,201.293869 
	C302.594055,197.402451 297.869690,194.060883 293.095428,190.792236 
	C281.342346,182.745636 269.206604,176.456207 254.192001,176.415085 
	C236.320572,176.366135 212.739197,192.390518 205.935303,212.943344 
	C198.410110,235.675064 205.475464,266.100708 229.337708,282.056427 
	C255.548187,299.582336 280.540161,318.934998 305.931915,337.669434 
	C307.374573,338.733856 308.245087,341.379791 308.328400,343.334595 
	C308.616943,350.104645 308.439636,356.894562 308.439636,364.675507 
	C301.501617,359.993652 294.883453,355.792816 288.547241,351.202698 
	C268.696381,336.822327 248.956146,322.289246 229.163467,307.828430 
	C222.877594,303.235870 216.496353,298.771423 210.272339,294.097107 
	C193.968781,281.853058 185.984024,264.843292 182.952347,245.224915 
	C179.231979,221.149933 184.395584,199.231247 199.904709,180.148438 
	C211.294174,166.134552 225.771988,157.558624 243.862411,154.822372 
	C260.441376,152.314774 275.998016,154.939301 290.605927,162.760620 
	C296.665558,166.005051 302.101532,170.414215 307.999390,174.662720 
z"/>
<path fill="#FBFBFB" opacity="1.000000" stroke="none" 
	d="
M424.160004,636.910461 
	C424.176178,642.687988 424.176178,647.979187 424.176178,653.650757 
	C417.577576,653.650757 410.824982,653.650757 403.501038,653.650757 
	C403.501038,636.723633 403.501038,619.559692 403.501038,602.395813 
	C403.078156,602.178894 402.655273,601.962036 402.232391,601.745117 
	C393.203888,611.933472 384.175385,622.121765 375.247711,632.196350 
	C367.191589,621.766968 359.262909,611.502502 351.334229,601.238098 
	C350.914795,601.312195 350.495361,601.386292 350.075928,601.460388 
	C349.510803,618.946350 348.945679,636.432373 348.365875,654.373108 
	C341.145599,654.373108 334.368500,654.373108 327.175354,654.373108 
	C327.175354,621.048035 327.175354,587.241272 327.175354,553.342102 
	C333.941345,551.882202 339.021637,553.870056 343.361603,559.664734 
	C353.697968,573.465820 364.533813,586.892761 375.292236,600.629578 
	C382.126373,592.427246 389.358490,583.671204 396.677032,574.987976 
	C402.349792,568.257446 407.886078,561.381897 413.989075,555.059265 
	C416.287750,552.677856 420.010529,551.671082 424.143829,549.474548 
	C424.143829,579.544739 424.143829,607.984375 424.160004,636.910461 
z"/>
<path fill="#FCFCFC" opacity="1.000000" stroke="none" 
	d="
M291.501404,639.512939 
	C266.733185,661.000732 241.785248,657.835327 219.496811,639.128479 
	C199.345367,622.215149 197.871613,588.978943 216.344681,570.269653 
	C229.874725,556.566406 245.643661,550.017029 264.552185,553.521973 
	C283.656616,557.063232 297.985138,568.020325 304.503357,586.520569 
	C311.487152,606.342224 306.313080,624.171997 291.501404,639.512939 
M232.096420,622.304688 
	C242.927155,634.732300 255.861328,636.483154 271.221283,627.600891 
	C283.150787,620.702515 288.673553,608.706848 285.333405,597.221008 
	C280.374878,580.170044 268.071716,573.014221 254.953430,573.547913 
	C243.151749,574.027954 233.620514,579.779907 228.014435,590.952576 
	C222.416351,602.109436 225.377655,612.054810 232.096420,622.304688 
z"/>
<path fill="#FBFBFB" opacity="1.000000" stroke="none" 
	d="
M172.038391,653.769836 
	C168.914597,653.767517 166.279999,653.767517 162.969620,653.767517 
	C162.969620,640.230896 162.969620,626.816162 162.969620,612.792542 
	C149.322266,612.792542 136.230347,612.710449 123.145782,612.981934 
	C122.296814,612.999512 120.854141,615.708374 120.788887,617.213074 
	C120.291199,628.689758 120.070633,640.178406 119.749756,651.662964 
	C119.732040,652.297058 119.589241,652.927612 119.460403,653.890625 
	C112.889320,653.890625 106.477654,653.890625 99.472351,653.890625 
	C99.472351,620.468079 99.472351,586.959900 99.472351,553.157715 
	C106.709396,553.157715 113.300987,553.157715 120.524467,553.157715 
	C120.524467,566.273376 120.524467,579.330444 120.524467,592.880432 
	C133.883408,592.880432 146.621765,592.966675 159.352524,592.695679 
	C160.246353,592.676575 161.784485,590.041626 161.835953,588.581299 
	C162.216660,577.778015 162.286484,566.963867 162.486908,556.153748 
	C162.504700,555.193298 162.756012,554.237183 162.948715,552.944580 
	C169.701630,552.944580 176.299942,552.944580 183.335083,552.944580 
	C183.335083,586.468506 183.335083,620.001648 183.335083,653.772156 
	C179.742126,653.772156 176.134857,653.772156 172.038391,653.769836 
z"/>
<path fill="#FBFBFB" opacity="1.000000" stroke="none" 
	d="
M596.553284,631.813721 
	C603.803528,624.539856 602.897400,619.319702 593.749146,615.932495 
	C586.161133,613.122986 578.263428,611.151550 570.668762,608.358032 
	C560.870483,604.754028 553.132629,598.999207 551.021545,587.803040 
	C548.106384,572.342896 556.729004,558.633484 572.488953,553.722351 
	C584.035461,550.124268 595.197632,551.205200 605.989868,556.260803 
	C610.892517,558.557495 615.517334,561.447327 620.338379,564.106812 
	C615.818420,569.508850 611.672791,574.463501 607.885071,578.990356 
	C602.453674,576.748901 597.253540,574.192017 591.784729,572.507202 
	C588.728821,571.565796 585.169006,571.621338 581.940125,572.036255 
	C577.586670,572.595581 573.954041,574.937500 572.936890,579.526123 
	C571.890747,584.245728 575.050903,587.224182 578.723694,588.955078 
	C583.485474,591.199280 588.637207,592.609192 593.599854,594.435852 
	C599.343750,596.550049 605.357910,598.165955 610.740540,600.981323 
	C626.994507,609.482910 625.297058,629.754333 618.131287,639.055908 
	C610.393860,649.099609 599.993958,652.848389 587.526001,653.378845 
	C571.772522,654.049011 559.144165,646.738770 546.399780,639.769836 
	C551.348450,634.356689 556.095337,629.164246 560.909668,623.898010 
	C571.199036,631.029297 582.338501,637.330872 596.553284,631.813721 
z"/>
<path fill="#FCFCFC" opacity="1.000000" stroke="none" 
	d="
M520.429321,610.524780 
	C526.727722,624.982605 532.872742,639.093811 539.467224,654.237366 
	C532.599915,654.237366 526.996643,654.461731 521.432739,654.093079 
	C519.875427,653.989929 517.820923,652.468323 517.049683,651.031189 
	C514.308594,645.923096 512.207947,640.470581 509.450134,635.372742 
	C508.637756,633.870972 506.450653,632.158569 504.899261,632.164062 
	C493.947540,632.202576 482.991638,632.553894 472.053436,633.121033 
	C470.589722,633.196960 468.637390,634.742065 467.911072,636.130005 
	C465.607208,640.532532 463.478333,645.079651 461.856934,649.769653 
	C460.540955,653.576233 458.450348,654.819397 454.513489,654.552673 
	C449.274139,654.197571 443.992554,654.465027 437.086060,654.465027 
	C453.543030,618.392761 469.050964,583.251526 488.620148,550.098022 
	C489.247620,550.027710 489.875092,549.957458 490.502533,549.887207 
	C500.426971,569.984192 510.351410,590.081238 520.429321,610.524780 
M480.807343,609.491394 
	C480.490723,610.856995 480.174133,612.222534 479.840881,613.660034 
	C486.384521,613.660034 492.419800,613.660034 499.050873,613.660034 
	C495.472076,606.084534 492.129395,599.008850 488.435150,591.188965 
	C485.740234,597.511902 483.357758,603.101807 480.807343,609.491394 
z"/>
<path fill="#FCFCFC" opacity="1.000000" stroke="none" 
	d="
M141.346619,149.374207 
	C154.967209,140.728439 168.375504,132.418640 181.626205,123.864731 
	C192.922058,116.572777 204.041245,109.006927 215.221893,101.537254 
	C216.034058,100.994659 216.710159,100.248444 217.820953,99.269562 
	C221.903381,105.353592 226.011703,111.476219 230.755478,118.545853 
	C223.966705,122.854027 217.536621,126.813698 211.229736,130.960724 
	C195.425537,141.352600 179.679108,151.832291 163.901581,162.264786 
	C162.934616,162.904144 161.960495,163.767166 160.884796,163.970108 
	C153.156693,165.428009 152.455322,170.487900 152.599030,177.335419 
	C153.052811,198.959946 152.710281,220.600220 152.850601,242.233261 
	C152.873291,245.734161 151.730820,247.030609 148.270035,246.907684 
	C143.307037,246.731415 138.333099,246.862732 132.195328,246.862732 
	C131.334625,216.512863 131.998062,186.015808 131.937256,155.756073 
	C135.105392,153.621094 138.085678,151.612701 141.346619,149.374207 
z"/>
<path fill="#FDFDFD" opacity="1.000000" stroke="none" 
	d="
M183.994446,360.018250 
	C200.130142,370.195007 215.979385,380.156128 231.781525,390.087616 
	C227.678848,395.882324 223.054977,402.413177 218.789948,408.437164 
	C190.134094,389.786316 161.409653,371.090790 131.856720,351.856049 
	C131.856720,322.416260 131.856720,291.874603 131.856720,261.029205 
	C138.822571,261.029205 145.677567,261.029205 152.044052,261.029205 
	C152.044052,286.681183 152.006851,312.220856 152.145233,337.759552 
	C152.152771,339.151855 153.279770,341.083801 154.471863,341.837738 
	C164.138046,347.951233 173.944366,353.843140 183.994446,360.018250 
z"/>
<path fill="#FBFBFB" opacity="1.000000" stroke="none" 
	d="
M478.075714,167.696991 
	C475.310089,166.956940 472.130280,166.855499 469.845734,165.373734 
	C454.400421,155.355728 439.147797,145.040741 423.825775,134.832458 
	C416.931244,130.238983 410.020447,125.669975 402.739410,120.839348 
	C407.105103,114.752251 411.326782,108.865936 415.587860,102.924721 
	C442.473785,119.848923 469.832794,137.070923 497.509277,154.492752 
	C495.623596,156.247604 493.956207,157.799301 492.288818,159.351013 
	C492.417969,159.662994 492.547150,159.974991 492.676331,160.286987 
	C494.998810,159.373642 497.321289,158.460312 500.683319,157.138153 
	C500.683319,186.745255 500.683319,216.104004 500.151001,245.811768 
	C499.351044,246.307617 499.149048,246.517578 499.012665,246.790665 
	C492.476105,246.790665 485.939545,246.790665 478.958496,246.790665 
	C478.958496,221.233505 478.958496,196.063873 479.400269,170.300720 
	C482.954407,167.571915 486.066742,165.436615 489.888031,162.814957 
	C485.104340,162.230759 481.408295,163.977051 478.075714,167.696991 
M489.516632,160.416016 
	C489.516632,160.416016 489.579407,160.523010 489.516632,160.416016 
z"/>
<path fill="#FBFBFB" opacity="1.000000" stroke="none" 
	d="
M53.086479,587.883545 
	C53.088596,610.134705 53.088596,631.901367 53.088596,654.174194 
	C45.777782,654.174194 39.294689,654.174194 32.134064,654.174194 
	C32.134064,641.382874 32.152954,629.098083 32.128986,616.813416 
	C32.102695,603.337708 31.972664,589.861816 32.033253,576.386658 
	C32.048485,572.999695 29.787128,573.132751 27.678040,573.109741 
	C20.239355,573.028564 12.799246,573.078247 5.268268,573.078247 
	C5.268268,566.645569 5.268268,560.567139 5.268268,554.208252 
	C6.640281,553.996582 7.736809,553.686890 8.835605,553.678650 
	C31.157593,553.510681 53.481224,553.472412 75.800758,553.148682 
	C79.801895,553.090637 81.135811,554.215637 80.847214,558.213623 
	C80.514854,562.817871 80.770004,567.464600 80.770004,572.677002 
	C71.454308,572.677002 62.396969,572.677002 53.084366,572.677002 
	C53.084366,577.883972 53.084366,582.641479 53.086479,587.883545 
z"/>
<path fill="#F7F9F8" opacity="1.000000" stroke="none" 
	d="
M499.833557,300.996948 
	C499.833557,317.787842 499.833557,334.578735 499.833557,351.522095 
	C470.340576,368.242218 441.714478,387.936066 413.671844,407.768036 
	C409.589752,401.997070 405.490021,396.201141 400.975891,389.819366 
	C404.896423,387.067993 408.948761,384.050354 413.170044,381.291107 
	C433.897217,367.742737 454.659637,354.248077 475.436096,340.775330 
	C478.529083,338.769653 480.540497,336.648987 480.125885,332.382477 
	C479.564636,326.606354 479.902649,320.742889 480.286316,314.403992 
	C482.007416,313.070099 483.367279,311.454468 484.575012,311.561188 
	C490.918060,312.121582 493.685852,310.437164 496.175079,304.452118 
	C496.763275,303.037842 498.581268,302.135040 499.833557,300.996948 
z"/>
<path fill="#F9F9FA" opacity="1.000000" stroke="none" 
	d="
M491.139069,74.198456 
	C503.452850,73.910950 515.317688,73.922905 527.177246,73.676956 
	C533.216736,73.551712 539.246704,72.962921 545.567749,72.565651 
	C545.567749,90.269104 545.567749,108.227829 545.567749,126.503983 
	C527.848267,127.382561 510.360077,128.249664 493.613098,129.080017 
	C492.632843,110.752899 491.660400,92.572052 491.139069,74.198456 
M529.104736,106.112602 
	C529.104736,100.506195 529.104736,94.899780 529.104736,89.143677 
	C522.743164,89.143677 516.799377,89.006676 510.872040,89.257568 
	C509.665039,89.308655 507.539368,90.777832 507.502014,91.663483 
	C507.217377,98.411789 507.346039,105.177513 507.346039,112.224625 
	C515.355713,111.705719 522.488281,111.243637 529.489624,110.790054 
	C529.340271,109.318474 529.223999,108.172676 529.104736,106.112602 
z"/>
<path fill="#F9F9FA" opacity="1.000000" stroke="none" 
	d="
M142.919159,76.826965 
	C138.736298,91.243393 139.813782,105.594528 139.878021,119.875908 
	C139.889786,122.491737 139.879700,125.107674 139.879700,127.778976 
	C124.518616,127.778976 109.426712,127.690720 94.336967,127.832497 
	C89.780746,127.875305 87.890167,126.497719 87.873451,121.525208 
	C87.822716,106.426186 87.234337,91.329033 86.867607,76.230850 
	C86.848663,75.450760 86.943680,74.667900 87.032623,73.011147 
	C105.768913,73.011147 124.253006,73.011147 143.191940,73.011147 
	C143.140854,73.949409 143.074051,75.176559 142.919159,76.826965 
M124.818459,95.670631 
	C124.818459,93.743187 124.818459,91.815750 124.818459,89.404907 
	C117.342300,89.404907 110.296249,89.404907 103.238953,89.404907 
	C103.238953,97.108742 103.238953,104.801086 103.238953,111.746445 
	C109.363571,111.746445 115.604530,111.896332 121.824730,111.604202 
	C122.906990,111.553375 124.696968,109.704506 124.792839,108.570511 
	C125.127075,104.616943 124.861160,100.612625 124.818459,95.670631 
z"/>
<path fill="#FBFBFB" opacity="1.000000" stroke="none" 
	d="
M518.715088,439.649109 
	C509.078552,438.227783 499.842438,436.621918 491.077057,435.097900 
	C491.077057,417.545868 491.077057,400.360046 491.077057,383.255127 
	C509.517242,383.255127 527.355225,383.255127 545.500549,383.255127 
	C545.657898,384.046234 546.018860,384.970612 545.997253,385.885956 
	C545.645508,400.804840 545.057739,415.721832 544.999756,430.641113 
	C544.986755,433.994537 543.846497,435.113068 541.064392,435.603363 
	C533.748535,436.892578 526.431885,438.177734 518.715088,439.649109 
M520.469604,422.288483 
	C523.229431,422.288483 525.989319,422.288483 529.079346,422.288483 
	C529.079346,414.695374 529.079346,406.969910 529.079346,399.196106 
	C521.857300,399.196106 514.631592,399.196106 507.155273,399.196106 
	C507.155273,407.244110 507.155273,414.985809 507.155273,422.983582 
	C511.357605,422.749756 515.453735,422.521851 520.469604,422.288483 
z"/>
<path fill="#FBFBFB" opacity="1.000000" stroke="none" 
	d="
M366.088989,69.936005 
	C378.237885,77.862259 390.103119,85.559753 401.830627,93.167908 
	C398.138092,99.603210 394.412354,106.096405 390.461273,112.982315 
	C377.575500,104.054008 364.972595,95.159767 352.194183,86.525230 
	C343.807220,80.858025 335.230469,75.462013 326.600525,70.169907 
	C324.039703,68.599556 322.825073,66.946381 322.918182,63.841244 
	C323.135040,56.612595 322.987335,49.373013 322.987335,41.134476 
	C338.181091,51.273380 351.993225,60.490303 366.088989,69.936005 
z"/>
<path fill="#FBFBFB" opacity="1.000000" stroke="none" 
	d="
M277.330933,88.285751 
	C266.008759,95.803429 255.009171,103.154175 244.042389,110.482986 
	C239.931763,104.361908 235.735397,98.113159 231.388107,91.639671 
	C256.809265,75.153931 282.415497,58.548168 308.348450,41.730511 
	C308.348450,50.210838 308.384705,58.268589 308.292114,66.324860 
	C308.282898,67.127159 307.693848,68.226395 307.028473,68.671959 
	C297.271301,75.205742 287.455383,81.651848 277.330933,88.285751 
z"/>
<path fill="#FBFBFB" opacity="1.000000" stroke="none" 
	d="
M238.405579,406.403534 
	C240.872406,403.727478 243.089005,401.301239 245.013580,399.194672 
	C265.373535,412.441498 285.086395,425.337372 304.902008,438.073303 
	C307.442322,439.705994 308.430206,441.379913 308.306000,444.430817 
	C308.031097,451.183594 308.220428,457.955261 308.220428,465.053711 
	C282.338959,448.862427 256.142365,432.473969 229.541351,415.832550 
	C232.283691,412.910278 235.219513,409.781830 238.405579,406.403534 
z"/>
<path fill="#F9FBFB" opacity="1.000000" stroke="none" 
	d="
M96.570610,435.167877 
	C93.584373,435.167877 90.598145,435.167877 86.927429,435.167877 
	C86.927429,417.945984 86.927429,401.057831 86.927429,382.988129 
	C104.678635,382.988129 122.968132,382.988129 141.268814,382.988129 
	C140.730667,393.667236 140.141022,405.368347 139.094757,417.608490 
	C136.181610,423.182190 130.830215,422.957855 126.551445,424.465851 
	C125.446808,424.855164 123.545296,422.983337 122.415024,422.082031 
	C123.504791,421.214111 124.765396,420.427124 124.783554,419.612427 
	C124.940544,412.568176 124.873924,405.518890 124.873924,398.384521 
	C117.051842,398.384521 109.695450,398.384521 102.825562,398.384521 
	C102.825562,402.159485 102.825562,405.579742 102.681488,409.095032 
	C102.486870,409.292572 102.366570,409.436584 102.398415,409.490112 
	C102.509468,409.676758 102.673149,409.832062 102.887733,410.412659 
	C102.903061,412.219482 102.847488,413.612915 102.579605,415.206329 
	C102.513710,416.269287 102.660118,417.132263 102.883980,418.323547 
	C102.917007,419.096954 102.872589,419.542023 102.500877,420.059814 
	C101.481194,424.548492 100.708138,428.954681 100.169395,433.389374 
	C100.070244,434.205505 100.920761,435.136993 101.332947,436.015259 
	C100.728432,436.026825 100.123917,436.038391 98.590485,435.658875 
	C97.297913,435.234497 96.934258,435.201172 96.570610,435.167877 
z"/>
<path fill="#F9F9F9" opacity="1.000000" stroke="none" 
	d="
M465.676208,98.369812 
	C474.576752,101.753204 476.670380,108.180199 475.004120,116.542282 
	C474.757080,117.782089 474.830261,119.085701 474.726227,120.854378 
	C467.107880,115.572212 459.941376,110.326973 452.496826,105.511658 
	C443.204254,99.500992 433.565338,94.023735 424.305847,87.964859 
	C419.096741,84.556320 414.228760,80.583214 409.484436,76.539093 
	C408.341370,75.564766 407.866394,73.310997 407.819550,71.625183 
	C407.460907,58.712410 407.291687,45.794449 407.042542,32.878506 
	C407.005005,30.930752 406.858337,28.985102 406.769440,27.186329 
	C411.166840,26.255571 415.329163,25.374567 420.033936,24.378759 
	C420.218445,25.561415 420.519165,26.773932 420.581207,27.998539 
	C421.144043,39.107304 422.450775,50.255047 421.931763,61.315933 
	C421.564789,69.136345 426.427979,73.306442 431.387390,75.117241 
	C436.338959,76.925148 439.369385,80.410133 443.328888,82.969826 
	C450.822357,87.814102 458.048706,93.071548 465.676208,98.369812 
z"/>
<path fill="#F9FCFC" opacity="1.000000" stroke="none" 
	d="
M261.931580,228.078201 
	C263.731506,228.064758 265.048279,228.064758 266.729980,228.064758 
	C266.729980,246.664108 266.729980,265.200836 266.729980,284.567139 
	C260.108307,284.567139 253.403351,284.567139 246.055283,284.567139 
	C246.055283,284.012878 246.009430,282.619659 246.062576,281.230225 
	C246.456314,270.938660 246.767929,260.642181 247.340454,250.360336 
	C247.507172,247.366302 246.064316,246.409195 243.628326,246.385757 
	C238.073822,246.332291 232.517670,246.470566 226.962036,246.510544 
	C223.852478,246.532913 220.742599,246.514557 217.110458,246.514557 
	C217.655472,240.589752 218.160324,235.101395 218.732254,228.883926 
	C232.938309,228.620438 247.193344,228.356033 261.931580,228.078201 
z"/>
<path fill="#F6F6F6" opacity="1.000000" stroke="none" 
	d="
M528.634644,358.998291 
	C524.875122,358.998169 521.579529,358.998169 517.798462,358.998169 
	C517.798462,326.261841 517.798462,293.766571 517.798462,261.297119 
	C523.105591,260.850586 527.846191,260.451691 533.104126,260.009277 
	C533.104126,267.548401 533.132935,274.991241 533.098694,282.433838 
	C532.995911,304.739960 532.879028,327.046021 532.735046,349.351929 
	C532.720032,351.678162 532.813721,354.091187 532.218811,356.291443 
	C531.920654,357.394348 530.184387,358.108429 528.634644,358.998291 
z"/>
<path fill="#F9F9F9" opacity="1.000000" stroke="none" 
	d="
M114.572746,328.001770 
	C114.575638,337.992981 114.575638,347.484039 114.575638,357.514404 
	C110.181839,357.514404 105.515251,357.514404 100.067688,357.514404 
	C100.067688,325.428741 100.067688,293.137787 100.067688,260.590393 
	C104.648895,260.308533 109.219742,260.027313 114.569855,259.698151 
	C114.569855,282.401001 114.569855,304.951324 114.572746,328.001770 
z"/>
<path fill="#F8F8F8" opacity="1.000000" stroke="none" 
	d="
M517.365112,200.999878 
	C517.355774,185.051712 517.355774,169.603531 517.355774,153.800934 
	C522.993225,153.800934 527.837830,153.800934 532.921936,153.800934 
	C532.921936,184.093796 532.921936,214.606766 532.921936,245.256317 
	C527.925415,245.256317 523.178162,245.256317 517.374390,245.256317 
	C517.374390,230.672913 517.374390,216.086380 517.365112,200.999878 
z"/>
<path fill="#F8F8F8" opacity="1.000000" stroke="none" 
	d="
M114.751923,205.000000 
	C114.750801,218.283875 114.750801,231.067719 114.750801,244.028046 
	C109.586983,244.028046 105.116768,244.028046 100.273407,244.028046 
	C100.273407,213.874557 100.273407,183.697983 100.273407,153.103699 
	C105.358498,153.103699 109.934402,153.103699 114.753052,153.103699 
	C114.753052,169.955490 114.753052,187.227737 114.751923,205.000000 
z"/>
<path fill="#F9F9FA" opacity="1.000000" stroke="none" 
	d="
M471.009155,390.697601 
	C471.979919,390.962860 473.142029,391.384613 473.212952,391.944519 
	C473.734131,396.060760 474.269348,400.205170 474.259033,404.339386 
	C474.256165,405.491425 472.614594,406.884460 471.421844,407.748962 
	C463.372803,413.582886 455.242310,419.304474 447.792114,424.597778 
	C452.386810,439.615448 450.133972,454.210449 450.840912,468.732117 
	C445.707428,468.732117 441.135925,468.732117 435.919464,468.732117 
	C435.919464,465.094818 436.144745,461.810242 435.878326,458.566010 
	C434.983490,447.669525 434.165161,436.755920 432.809540,425.912384 
	C432.076447,420.048401 433.170105,415.998383 438.582733,412.610229 
	C449.525360,405.760468 460.017365,398.190857 471.009155,390.697601 
z"/>
<path fill="#FAFAFA" opacity="1.000000" stroke="none" 
	d="
M160.323303,394.360657 
	C162.172729,394.075958 164.306503,393.618866 165.670532,394.440216 
	C177.764145,401.721863 189.721390,409.230011 200.670929,416.021332 
	C199.575851,433.330414 198.495026,450.414459 197.402100,467.689484 
	C192.746841,467.689484 188.044464,467.689484 183.373062,467.689484 
	C183.373062,453.718658 183.423111,440.161407 183.300659,426.605682 
	C183.287460,425.145813 182.702850,423.098846 181.650558,422.338928 
	C175.811874,418.122742 169.895615,413.968536 163.703568,410.304016 
	C159.921844,408.065979 158.065125,405.630920 159.324371,401.178772 
	C159.905762,399.123322 159.958328,396.918304 160.323303,394.360657 
z"/>
<path fill="#FAFAFA" opacity="1.000000" stroke="none" 
	d="
M359.995911,480.935059 
	C349.177124,487.919403 338.687164,494.745605 328.109436,501.628906 
	C325.809357,496.687378 324.005066,492.811066 322.174011,488.877136 
	C345.205719,473.569885 368.064270,458.377716 390.941315,443.173248 
	C391.115448,443.389801 391.387390,443.603027 391.495117,443.880096 
	C395.515198,454.219086 391.970184,461.441650 382.615417,466.785828 
	C375.004761,471.133636 367.741882,476.090240 359.995911,480.935059 
z"/>
<path fill="#F9F9F9" opacity="1.000000" stroke="none" 
	d="
M389.515808,64.668655 
	C368.202667,50.842247 347.185760,37.256348 326.266846,23.521168 
	C325.071686,22.736435 323.972565,20.693449 324.048309,19.302460 
	C324.242676,15.732166 325.124115,12.199286 325.901703,7.653053 
	C333.329651,12.148028 340.193024,16.230852 346.986145,20.427462 
	C359.589417,28.213419 371.912262,36.491089 384.810181,43.749718 
	C394.331940,49.108345 395.705841,56.321880 391.956879,65.842026 
	C391.467590,65.619606 390.650452,65.248161 389.515808,64.668655 
z"/>
<path fill="#F9F9FA" opacity="1.000000" stroke="none" 
	d="
M248.770615,60.809044 
	C246.698639,62.083050 244.934677,63.153316 242.044220,64.907066 
	C242.044220,59.403774 241.615616,54.946308 242.231277,50.638069 
	C242.523926,48.590160 244.441391,46.315434 246.250763,45.021667 
	C254.696686,38.982525 263.310272,33.172340 271.961670,27.427523 
	C282.133820,20.672880 292.397369,14.055550 302.654388,7.429892 
	C303.438171,6.923607 304.484558,6.823845 305.631714,6.465511 
	C306.141205,10.962748 306.822662,15.183824 306.973938,19.423813 
	C307.018341,20.669460 305.863831,22.417482 304.744354,23.176517 
	C286.237793,35.724541 267.649017,48.151360 248.770615,60.809044 
z"/>
<path fill="#F9F9F9" opacity="1.000000" stroke="none" 
	d="
M303.666870,498.678070 
	C285.276733,487.270447 267.197723,476.104034 249.115295,464.943085 
	C240.730133,459.767548 240.330933,458.385498 243.201355,444.170624 
	C265.318024,458.052002 287.422516,471.925720 309.484711,485.772919 
	C308.549927,490.597870 307.617645,495.409760 306.607269,500.624786 
	C305.560852,499.947296 304.768707,499.434418 303.666870,498.678070 
z"/>
<path fill="#F9FBFB" opacity="1.000000" stroke="none" 
	d="
M323.594849,445.971283 
	C322.787567,443.505127 322.503662,441.601959 325.334106,439.714966 
	C338.500916,430.937073 351.423370,421.793762 364.515106,412.901764 
	C371.972015,407.836945 379.586151,403.003601 387.577087,397.773010 
	C391.828094,403.302734 396.505493,409.387054 401.289703,415.610321 
	C396.443085,418.407135 391.599121,421.202423 386.283997,423.781982 
	C384.732422,422.818054 383.341339,421.201233 382.620728,421.459015 
	C376.796143,423.542267 371.113098,426.017303 365.351440,428.282684 
	C363.534576,428.997009 361.569366,429.330475 359.742920,430.024658 
	C354.682220,431.948059 348.893524,433.013763 344.856262,436.246429 
	C341.459503,438.966278 338.797119,441.528381 334.236450,441.178833 
	C333.571442,441.127869 332.875153,442.039337 332.131409,442.363525 
	C329.299652,443.597656 326.442505,444.773590 323.594849,445.971283 
z"/>
<path fill="#FBFDFD" opacity="1.000000" stroke="none" 
	d="
M499.908997,300.533875 
	C498.581268,302.135040 496.763275,303.037842 496.175079,304.452118 
	C493.685852,310.437164 490.918060,312.121582 484.575012,311.561188 
	C483.367279,311.454468 482.007416,313.070099 480.387146,313.944702 
	C479.876617,311.311920 479.696747,308.625488 479.959198,305.372253 
	C482.099701,303.451752 482.417328,302.387634 479.800262,301.939148 
	C479.800262,288.816956 479.800262,275.694733 479.800262,262.190826 
	C486.527161,262.190826 493.393585,262.190826 499.984436,262.190826 
	C499.984436,274.879120 499.984436,287.474945 499.908997,300.533875 
z"/>
<path fill="#FBFBFB" opacity="1.000000" stroke="none" 
	d="
M63.401428,273.233765 
	C49.243378,273.253021 35.554092,273.253021 21.801689,273.253021 
	C21.801689,269.555634 21.801689,265.038269 21.801689,259.931396 
	C42.728073,259.931396 63.190990,259.931396 83.982208,259.931396 
	C83.982208,263.983398 83.982208,268.251831 83.982208,273.214478 
	C77.437584,273.214478 70.653885,273.214478 63.401428,273.233765 
z"/>
<path fill="#F8F8F8" opacity="1.000000" stroke="none" 
	d="
M589.995544,273.761536 
	C575.886047,273.765106 562.277161,273.765106 548.389221,273.765106 
	C548.389221,269.682343 548.389221,265.438049 548.389221,260.552246 
	C569.727173,260.552246 591.235535,260.552246 612.994202,260.552246 
	C612.994202,264.677765 612.994202,269.066376 612.994202,273.757996 
	C605.346191,273.757996 597.921143,273.757996 589.995544,273.761536 
z"/>
<path fill="#F2F2F2" opacity="1.000000" stroke="none" 
	d="
M80.943382,231.205658 
	C82.555458,231.147430 83.673843,231.093002 85.120018,231.022629 
	C85.001610,232.907776 84.865143,234.500000 84.807487,236.095047 
	C84.492134,244.818420 84.498802,244.799149 75.545784,244.791870 
	C58.117252,244.777695 40.688702,244.787720 22.238556,244.787720 
	C22.238556,241.031433 21.970169,237.122437 22.436171,233.303055 
	C22.546183,232.401398 25.123768,231.170151 26.572622,231.161499 
	C39.043503,231.086990 51.515724,231.285385 63.987820,231.343506 
	C69.474785,231.369080 74.962379,231.258331 80.943382,231.205658 
z"/>
<path fill="#F5F5F5" opacity="1.000000" stroke="none" 
	d="
M69.989487,215.630844 
	C53.856369,215.630936 38.221073,215.630936 22.017591,215.630936 
	C21.626684,211.706223 21.242208,207.846085 20.756691,202.971497 
	C42.132774,202.971497 63.185078,202.971497 84.468254,202.971497 
	C84.310699,206.573227 84.125282,210.811859 83.914482,215.630753 
	C79.380089,215.630753 74.933701,215.630753 69.989487,215.630844 
z"/>
<path fill="#F9F9FA" opacity="1.000000" stroke="none" 
	d="
M405.955322,456.916260 
	C405.683716,449.622986 405.288605,442.818481 405.245453,436.011719 
	C405.236908,434.670258 406.248535,432.817871 407.369629,432.066406 
	C411.029205,429.613647 414.956818,427.560822 418.683655,425.410522 
	C421.910126,445.297638 421.682037,465.275665 419.167847,485.411011 
	C414.373322,485.411011 409.954803,485.411011 404.688354,485.411011 
	C405.121429,475.835846 405.538269,466.620056 405.955322,456.916260 
z"/>
<path fill="#FDFDFD" opacity="1.000000" stroke="none" 
	d="
M595.997864,245.021912 
	C580.187195,245.022156 564.876099,245.022156 549.265747,245.022156 
	C549.265747,240.662781 549.265747,236.445236 549.265747,231.884796 
	C570.823669,231.884796 592.032166,231.884796 613.163757,231.884796 
	C613.163757,236.222809 613.163757,240.132706 613.163757,245.021683 
	C607.364014,245.021683 601.930725,245.021683 595.997864,245.021912 
z"/>
<path fill="#F8F8F8" opacity="1.000000" stroke="none" 
	d="
M224.238220,75.009872 
	C220.777664,77.608017 217.608994,79.962029 214.024246,82.625145 
	C209.696487,63.350548 214.387253,44.502682 213.006393,25.182184 
	C217.864838,24.918455 222.364090,24.512461 226.852356,24.610342 
	C227.502670,24.624521 228.666550,27.069271 228.632156,28.363741 
	C228.371719,38.159550 227.863419,47.948643 227.450089,57.740574 
	C227.288910,61.558937 227.420502,65.411125 226.933746,69.185356 
	C226.684662,71.116692 225.365585,72.910027 224.238220,75.009872 
z"/>
<path fill="#F2F2F2" opacity="1.000000" stroke="none" 
	d="
M323.455994,446.422913 
	C326.442505,444.773590 329.299652,443.597656 332.131409,442.363525 
	C332.875153,442.039337 333.571442,441.127869 334.236450,441.178833 
	C338.797119,441.528381 341.459503,438.966278 344.856262,436.246429 
	C348.893524,433.013763 354.682220,431.948059 359.742920,430.024658 
	C361.569366,429.330475 363.534576,428.997009 365.351440,428.282684 
	C371.113098,426.017303 376.796143,423.542267 382.620728,421.459015 
	C383.341339,421.201233 384.732422,422.818054 385.953064,423.899811 
	C365.359100,438.238739 344.624878,452.244141 323.317139,466.636932 
	C323.317139,459.850342 323.317139,453.362427 323.455994,446.422913 
z"/>
<path fill="#F6F6F6" opacity="1.000000" stroke="none" 
	d="
M64.996735,301.015198 
	C50.567902,301.015289 36.639149,301.015289 22.640205,301.015289 
	C22.640205,296.606964 22.640205,292.529236 22.640205,288.127747 
	C42.955685,288.127747 62.853722,288.127747 83.161064,288.127747 
	C83.161064,291.827759 83.161064,295.576172 83.161064,300.394409 
	C77.566467,300.590973 71.531639,300.803040 64.996735,301.015198 
z"/>
<path fill="#F7F9F8" opacity="1.000000" stroke="none" 
	d="
M368.885254,241.711456 
	C368.828979,237.103760 368.828979,232.958221 368.828979,228.480927 
	C382.861115,228.480927 396.561951,228.480927 410.541199,228.480927 
	C410.541199,234.464233 410.541199,239.958832 410.541199,246.633545 
	C403.773834,246.633545 396.718445,246.665176 389.663483,246.623550 
	C384.008972,246.590179 378.354218,246.375244 372.701080,246.421967 
	C369.613617,246.447495 368.544403,245.050476 368.885254,241.711456 
z"/>
<path fill="#FDFDFD" opacity="1.000000" stroke="none" 
	d="
M612.323608,289.399841 
	C612.662781,293.342194 612.662781,296.981995 612.662781,300.936951 
	C590.970764,300.936951 569.929749,300.936951 548.556335,300.936951 
	C548.898743,296.806366 549.209473,293.058105 549.537842,289.097321 
	C570.577820,289.097321 591.281189,289.097321 612.323608,289.399841 
z"/>
<path fill="#F9F9F9" opacity="1.000000" stroke="none" 
	d="
M160.002960,118.000343 
	C159.239868,112.932419 158.476776,107.864494 157.679855,102.571953 
	C170.541046,94.128487 183.730362,85.469589 197.678925,76.312233 
	C198.301651,80.562950 198.934143,83.900223 199.243423,87.267189 
	C199.552963,90.637062 198.315781,93.104218 195.220657,95.123596 
	C183.519501,102.757858 172.019379,110.700256 160.192169,118.244446 
	C159.940308,117.961540 160.002960,118.000343 160.002960,118.000343 
z"/>
<path fill="#FCFCFC" opacity="1.000000" stroke="none" 
	d="
M227.838608,445.022308 
	C227.945923,456.297333 228.090820,467.572205 228.129120,478.847443 
	C228.136871,481.130463 227.741882,483.414886 227.515717,485.882446 
	C222.360153,485.882446 217.603333,485.882446 213.561096,485.882446 
	C213.561096,472.029205 213.561096,458.363434 214.176361,444.335815 
	C216.819031,444.334686 218.846420,444.695435 221.801163,445.221222 
	C222.470016,442.478821 223.204453,439.467590 223.938889,436.456329 
	C224.411835,436.488556 224.884781,436.520813 225.357727,436.553070 
	C225.574814,438.057617 225.634888,439.607727 226.054230,441.053619 
	C226.454269,442.432983 227.228729,443.703796 227.838608,445.022308 
z"/>
<path fill="#E9EDEE" opacity="1.000000" stroke="none" 
	d="
M122.009842,422.150146 
	C123.545296,422.983337 125.446808,424.855164 126.551445,424.465851 
	C130.830215,422.957855 136.181610,423.182190 138.934052,418.049530 
	C139.532928,422.845428 139.835846,427.739319 140.158829,432.957123 
	C136.713333,433.707184 133.399323,434.428619 129.295258,434.973694 
	C122.843864,435.407135 117.180748,436.002106 111.527771,436.681458 
	C111.303001,436.708466 111.174713,437.538269 111.001465,437.994049 
	C107.874847,437.456024 104.748230,436.917999 101.477280,436.197601 
	C100.920761,435.136993 100.070244,434.205505 100.169395,433.389374 
	C100.708138,428.954681 101.481194,424.548492 102.553909,420.520081 
	C103.769714,421.313354 104.598305,422.053253 105.441765,422.070618 
	C110.962662,422.184326 116.486778,422.141693 122.009842,422.150146 
z"/>
<path fill="#F5F5F5" opacity="1.000000" stroke="none" 
	d="
M562.783203,158.249420 
	C562.784851,169.008926 562.784851,179.290009 562.784851,189.249115 
	C561.878235,189.717316 561.602295,189.975937 561.312195,189.992874 
	C548.332458,190.750626 548.403992,190.749634 548.677002,177.894394 
	C548.831482,170.621399 548.704834,163.342438 548.704834,155.824936 
	C553.516846,155.502151 557.260498,155.125183 561.003845,155.129242 
	C561.597351,155.129883 562.189087,156.847290 562.783203,158.249420 
z"/>
<path fill="#F2F2F2" opacity="1.000000" stroke="none" 
	d="
M70.326294,341.710358 
	C69.914124,332.856903 69.534775,324.451721 69.189102,316.792633 
	C70.234802,315.905518 70.354195,315.714325 70.482147,315.708405 
	C87.043556,314.943085 83.469437,313.229218 83.562332,327.408966 
	C83.592857,332.067688 83.318336,336.727844 83.311424,341.387512 
	C83.305832,345.157776 82.211433,347.452698 77.785553,346.757843 
	C75.684143,346.427979 73.488045,346.701233 70.887108,346.701233 
	C70.689430,345.000488 70.524277,343.579559 70.326294,341.710358 
z"/>
<path fill="#F6F6F6" opacity="1.000000" stroke="none" 
	d="
M578.953979,203.358124 
	C590.010010,203.339905 600.642212,203.339905 611.696655,203.339905 
	C611.696655,206.849579 611.696655,211.383896 611.696655,216.248367 
	C600.936584,216.248367 590.062622,216.248367 578.530090,216.248367 
	C578.530090,211.642746 578.530090,207.509552 578.953979,203.358124 
z"/>
<path fill="#F7F9F8" opacity="1.000000" stroke="none" 
	d="
M202.134552,310.308655 
	C203.057724,310.507141 203.861984,310.704041 203.925781,311.041077 
	C204.108490,312.006409 203.991348,313.028534 203.991379,314.028351 
	C203.991516,318.967926 203.991425,323.907471 203.991425,329.085480 
	C201.200714,329.232574 199.404770,329.396545 197.607803,329.408875 
	C192.298309,329.445374 186.988373,329.421936 181.284668,329.421936 
	C181.284668,323.315216 181.284668,317.283478 181.284668,310.371033 
	C188.135147,310.371033 194.906311,310.371033 202.134552,310.308655 
z"/>
<path fill="#FBFBFB" opacity="1.000000" stroke="none" 
	d="
M548.724976,328.820496 
	C548.855042,324.624786 549.067139,320.859650 549.297424,316.772308 
	C553.822632,316.974365 557.764282,317.150360 562.436890,317.358978 
	C562.436890,327.652008 562.436890,337.667358 562.436890,347.384460 
	C561.429688,347.820892 561.138977,348.055603 560.846436,348.057953 
	C548.945007,348.154327 548.951355,348.151642 548.928528,336.243164 
	C548.924072,333.912415 548.849365,331.581757 548.724976,328.820496 
z"/>
<path fill="#F9FBFB" opacity="1.000000" stroke="none" 
	d="
M451.979187,331.436432 
	C444.913025,331.431122 438.290314,331.431122 431.252899,331.431122 
	C431.252899,324.550720 431.252899,318.522491 431.252899,312.059357 
	C438.137451,312.059357 445.221191,312.059357 452.422638,312.059357 
	C452.422638,318.231903 452.422638,324.836823 451.979187,331.436432 
z"/>
<path fill="#F2F2F2" opacity="1.000000" stroke="none" 
	d="
M182.282425,60.296425 
	C182.137344,54.334099 182.137344,48.786255 182.137344,43.054085 
	C186.794540,42.624908 190.837738,42.002110 194.871170,42.060097 
	C195.854721,42.074238 197.585587,44.288544 197.641266,45.550022 
	C197.925201,51.982899 197.772339,58.435055 197.772339,65.364594 
	C192.342743,66.147697 187.695496,66.817970 182.851410,67.516624 
	C182.697006,65.037651 182.562256,62.874279 182.282425,60.296425 
z"/>
<path fill="#F6F6F6" opacity="1.000000" stroke="none" 
	d="
M450.727509,60.783985 
	C450.587097,63.534481 450.453156,65.817146 450.304688,68.347046 
	C445.419159,67.977333 441.022552,67.644623 436.135956,67.274826 
	C436.135956,59.379913 436.135956,51.519218 436.135956,43.766594 
	C440.782593,43.558540 445.355713,43.353775 450.733948,43.112961 
	C450.733948,48.855042 450.733948,54.585598 450.727509,60.783985 
z"/>
<path fill="#F5F5F5" opacity="1.000000" stroke="none" 
	d="
M579.065369,329.032867 
	C576.470459,329.032654 574.359741,329.032654 572.267944,329.032654 
	C572.720398,314.307068 570.821289,316.972809 585.669006,316.612518 
	C594.234436,316.404694 587.731812,324.901825 591.977173,329.033081 
	C586.811584,329.033081 583.180542,329.033081 579.065369,329.032867 
z"/>
<path fill="#F5F5F5" opacity="1.000000" stroke="none" 
	d="
M49.376747,188.033020 
	C43.807220,185.997543 46.992462,181.121338 45.659332,177.770508 
	C45.576771,177.563019 48.679077,175.999863 50.372292,175.226608 
	C50.902172,174.984634 51.673859,175.328735 52.329830,175.297806 
	C62.989445,174.795044 63.536293,175.357742 62.723484,187.132462 
	C58.530708,187.424591 54.181149,187.727646 49.376747,188.033020 
z"/>
<path fill="#F8F8F8" opacity="1.000000" stroke="none" 
	d="
M74.363312,171.362152 
	C83.991310,170.853638 83.987289,170.853348 83.292641,180.342026 
	C83.138069,182.453339 83.022751,184.567520 82.847015,187.351074 
	C78.499763,186.884521 74.384270,186.442841 69.991249,185.971359 
	C69.991249,182.310104 69.897629,179.014511 70.022354,175.727203 
	C70.113869,173.315292 70.616394,171.026443 74.363312,171.362152 
z"/>
<path fill="#F9F9F9" opacity="1.000000" stroke="none" 
	d="
M579.728149,175.841187 
	C583.973267,175.506729 587.760925,175.208160 591.699097,174.897736 
	C591.699097,179.387451 591.699097,183.591110 591.699097,188.140961 
	C586.875122,188.140961 582.445496,188.140961 577.400696,188.140961 
	C577.244629,184.622849 576.950012,181.358612 577.065857,178.109024 
	C577.093262,177.339813 578.499023,176.619736 579.728149,175.841187 
z"/>
<path fill="#FDFDFD" opacity="1.000000" stroke="none" 
	d="
M559.775085,215.002197 
	C556.017151,215.002258 552.733459,215.002258 548.997803,215.002258 
	C548.997803,211.756516 549.127319,208.813522 548.963196,205.886993 
	C548.780396,202.628418 549.854553,201.187271 553.390686,200.906219 
	C561.669678,200.248184 561.615601,200.052460 562.038269,208.097595 
	C562.112854,209.518509 563.107117,211.006805 562.843567,212.293320 
	C562.631165,213.329910 561.161377,214.108871 559.775085,215.002197 
z"/>
<path fill="#F2F2F2" opacity="1.000000" stroke="none" 
	d="
M47.335537,328.793274 
	C42.920139,325.545807 45.506889,321.218353 45.329792,317.437469 
	C45.299721,316.795441 48.976917,315.688049 51.034985,315.321808 
	C53.106262,314.953217 55.294300,315.240753 57.716225,315.240753 
	C57.716225,319.879150 57.716225,323.944122 57.716225,328.803040 
	C54.307823,328.803040 51.052509,328.803040 47.335537,328.793274 
z"/>
<path fill="#DFE2E4" opacity="1.000000" stroke="none" 
	d="
M227.926254,444.606720 
	C227.228729,443.703796 226.454269,442.432983 226.054230,441.053619 
	C225.634888,439.607727 225.574814,438.057617 225.357727,436.553070 
	C224.884781,436.520813 224.411835,436.488556 223.938889,436.456329 
	C223.204453,439.467590 222.470016,442.478821 221.801163,445.221222 
	C218.846420,444.695435 216.819031,444.334686 214.398773,443.988129 
	C214.005905,438.404327 214.005905,432.806335 214.005905,426.264648 
	C218.845062,429.024109 223.096085,431.448151 228.013901,434.252472 
	C228.013901,436.981476 228.013901,440.586304 227.926254,444.606720 
z"/>
<path fill="#DFE2E4" opacity="1.000000" stroke="none" 
	d="
M111.281342,438.255005 
	C111.174713,437.538269 111.303001,436.708466 111.527771,436.681458 
	C117.180748,436.002106 122.843864,435.407135 128.887207,434.965942 
	C123.366554,436.261719 117.463890,437.388824 111.281342,438.255005 
z"/>
<path fill="#DFE2E4" opacity="1.000000" stroke="none" 
	d="
M478.200012,168.001678 
	C481.408295,163.977051 485.104340,162.230759 489.888031,162.814957 
	C486.066742,165.436615 482.954407,167.571915 479.548401,169.852280 
	C478.944611,169.433701 478.634460,168.870041 478.200012,168.001678 
z"/>
<path fill="#F7F9F8" opacity="1.000000" stroke="none" 
	d="
M479.626190,302.160431 
	C482.417328,302.387634 482.099701,303.451752 480.093719,304.943207 
	C479.674652,304.181213 479.563385,303.281464 479.626190,302.160431 
z"/>
<path fill="#E9EDEE" opacity="1.000000" stroke="none" 
	d="
M96.740524,435.437805 
	C96.934258,435.201172 97.297913,435.234497 98.172951,435.475098 
	C98.093040,435.690826 97.501740,435.699280 96.740524,435.437805 
z"/>
<path fill="#FAFAFA" opacity="1.000000" stroke="none" 
	d="
M499.279541,246.847458 
	C499.149048,246.517578 499.351044,246.307617 499.826782,246.085602 
	C499.872070,246.308350 499.709229,246.606293 499.279541,246.847458 
z"/>
<path fill="#F9F9F9" opacity="1.000000" stroke="none" 
	d="
M159.906494,117.946930 
	C159.929993,118.126480 159.987335,118.320625 160.044678,118.514771 
	C159.923492,118.394432 159.802322,118.274094 159.842041,118.077049 
	C160.002960,118.000343 159.940308,117.961540 159.906494,117.946930 
z"/>
<path fill="#010101" opacity="1.000000" stroke="none" 
	d="
M231.911255,621.990784 
	C225.377655,612.054810 222.416351,602.109436 228.014435,590.952576 
	C233.620514,579.779907 243.151749,574.027954 254.953430,573.547913 
	C268.071716,573.014221 280.374878,580.170044 285.333405,597.221008 
	C288.673553,608.706848 283.150787,620.702515 271.221283,627.600891 
	C255.861328,636.483154 242.927155,634.732300 231.911255,621.990784 
z"/>
<path fill="#050505" opacity="1.000000" stroke="none" 
	d="
M480.891327,609.091553 
	C483.357758,603.101807 485.740234,597.511902 488.435150,591.188965 
	C492.129395,599.008850 495.472076,606.084534 499.050873,613.660034 
	C492.419800,613.660034 486.384521,613.660034 479.840881,613.660034 
	C480.174133,612.222534 480.490723,610.856995 480.891327,609.091553 
z"/>
<path fill="#FAFAFA" opacity="1.000000" stroke="none" 
	d="
M489.548035,160.469513 
	C489.579407,160.523010 489.516632,160.416016 489.548035,160.469513 
z"/>
<path fill="#010101" opacity="1.000000" stroke="none" 
	d="
M529.106201,106.569748 
	C529.223999,108.172676 529.340271,109.318474 529.489624,110.790054 
	C522.488281,111.243637 515.355713,111.705719 507.346039,112.224625 
	C507.346039,105.177513 507.217377,98.411789 507.502014,91.663483 
	C507.539368,90.777832 509.665039,89.308655 510.872040,89.257568 
	C516.799377,89.006676 522.743164,89.143677 529.104736,89.143677 
	C529.104736,94.899780 529.104736,100.506195 529.106201,106.569748 
z"/>
<path fill="#050505" opacity="1.000000" stroke="none" 
	d="
M124.820908,96.149117 
	C124.861160,100.612625 125.127075,104.616943 124.792839,108.570511 
	C124.696968,109.704506 122.906990,111.553375 121.824730,111.604202 
	C115.604530,111.896332 109.363571,111.746445 103.238953,111.746445 
	C103.238953,104.801086 103.238953,97.108742 103.238953,89.404907 
	C110.296249,89.404907 117.342300,89.404907 124.818459,89.404907 
	C124.818459,91.815750 124.818459,93.743187 124.820908,96.149117 
z"/>
<path fill="#050505" opacity="1.000000" stroke="none" 
	d="
M520.009766,422.291199 
	C515.453735,422.521851 511.357605,422.749756 507.155273,422.983582 
	C507.155273,414.985809 507.155273,407.244110 507.155273,399.196106 
	C514.631592,399.196106 521.857300,399.196106 529.079346,399.196106 
	C529.079346,406.969910 529.079346,414.695374 529.079346,422.288483 
	C525.989319,422.288483 523.229431,422.288483 520.009766,422.291199 
z"/>
<path fill="#050505" opacity="1.000000" stroke="none" 
	d="
M122.415024,422.082031 
	C116.486778,422.141693 110.962662,422.184326 105.441765,422.070618 
	C104.598305,422.053253 103.769714,421.313354 102.881210,420.447388 
	C102.872589,419.542023 102.917007,419.096954 102.961220,417.953552 
	C102.904648,416.505615 102.848282,415.755981 102.791916,415.006378 
	C102.847488,413.612915 102.903061,412.219482 102.965988,410.163513 
	C102.924080,409.334015 102.874825,409.167023 102.825562,409.000031 
	C102.825562,405.579742 102.825562,402.159485 102.825562,398.384521 
	C109.695450,398.384521 117.051842,398.384521 124.873924,398.384521 
	C124.873924,405.518890 124.940544,412.568176 124.783554,419.612427 
	C124.765396,420.427124 123.504791,421.214111 122.415024,422.082031 
z"/>
<path fill="#E9EDEE" opacity="1.000000" stroke="none" 
	d="
M102.579605,415.206329 
	C102.848282,415.755981 102.904648,416.505615 102.883774,417.625244 
	C102.660118,417.132263 102.513710,416.269287 102.579605,415.206329 
z"/>
<path fill="#E9EDEE" opacity="1.000000" stroke="none" 
	d="
M102.681488,409.095032 
	C102.874825,409.167023 102.924080,409.334015 102.895081,409.750122 
	C102.673149,409.832062 102.509468,409.676758 102.398415,409.490112 
	C102.366570,409.436584 102.486870,409.292572 102.681488,409.095032 
z"/>
</svg>